<?xml version="1.0" encoding="utf-8" standalone="no"?>
<!DOCTYPE svg PUBLIC "-//W3C//DTD SVG 1.1//EN"
  "http://www.w3.org/Graphics/SVG/1.1/DTD/svg11.dtd">
<svg xmlns:xlink="http://www.w3.org/1999/xlink" width="684pt" height="587.59pt" viewBox="0 0 684 587.59" xmlns="http://www.w3.org/2000/svg" version="1.1">
 <metadata>
  <rdf:RDF xmlns:dc="http://purl.org/dc/elements/1.1/" xmlns:cc="http://creativecommons.org/ns#" xmlns:rdf="http://www.w3.org/1999/02/22-rdf-syntax-ns#">
   <cc:Work>
    <dc:type rdf:resource="http://purl.org/dc/dcmitype/StillImage"/>
    <dc:date>2025-07-19T17:58:26.587263</dc:date>
    <dc:format>image/svg+xml</dc:format>
    <dc:creator>
     <cc:Agent>
      <dc:title>Matplotlib v3.7.5, https://matplotlib.org/</dc:title>
     </cc:Agent>
    </dc:creator>
   </cc:Work>
  </rdf:RDF>
 </metadata>
 <defs>
  <style type="text/css">*{stroke-linejoin: round; stroke-linecap: butt}</style>
 </defs>
 <g id="figure_1">
  <g id="patch_1">
   <path d="M 0 587.59 
L 684 587.59 
L 684 0 
L 0 0 
z
" style="fill: #ffffff"/>
  </g>
  <g id="axes_1">
   <g id="patch_2">
    <path d="M 7.2 580.39 
L 676.8 580.39 
L 676.8 25.99 
L 7.2 25.99 
z
" style="fill: #ffffff"/>
   </g>
   <g id="matplotlib.axis_1">
    <g id="xtick_1">
     <g id="line2d_1">
      <path d="M 37.636364 580.39 
L 37.636364 25.99 
" clip-path="url(#p230f0b8200)" style="fill: none; stroke-dasharray: 2.96,1.28; stroke-dashoffset: 0; stroke: #b0b0b0; stroke-opacity: 0.5; stroke-width: 0.8"/>
     </g>
     <g id="line2d_2">
      <defs>
       <path id="m1488b96c64" d="M 0 0 
L 0 3.5 
" style="stroke: #000000; stroke-width: 0.8"/>
      </defs>
      <g>
       <use xlink:href="#m1488b96c64" x="37.636364" y="303.19" style="stroke: #000000; stroke-width: 0.8"/>
      </g>
     </g>
     <g id="text_1">
      <!-- $-\pi$ -->
      <g transform="translate(28.996364 319.7825) scale(0.12 -0.12)">
       <defs>
        <path id="DejaVuSans-2212" d="M 678 2272 
L 4684 2272 
L 4684 1741 
L 678 1741 
L 678 2272 
z
" transform="scale(0.015625)"/>
        <path id="DejaVuSans-Oblique-3c0" d="M 584 3500 
L 3938 3500 
L 3825 2925 
L 3384 2925 
L 2966 775 
Q 2922 550 2981 450 
Q 3038 353 3209 353 
Q 3256 353 3325 363 
Q 3397 369 3419 372 
L 3338 -44 
Q 3222 -84 3103 -103 
Q 2981 -122 2866 -122 
Q 2491 -122 2388 81 
Q 2284 288 2391 838 
L 2797 2925 
L 1506 2925 
L 938 0 
L 350 0 
L 919 2925 
L 472 2925 
L 584 3500 
z
" transform="scale(0.015625)"/>
       </defs>
       <use xlink:href="#DejaVuSans-2212" transform="translate(0 0.3125)"/>
       <use xlink:href="#DejaVuSans-Oblique-3c0" transform="translate(83.789062 0.3125)"/>
      </g>
     </g>
    </g>
    <g id="xtick_2">
     <g id="line2d_3">
      <path d="M 189.818182 580.39 
L 189.818182 25.99 
" clip-path="url(#p230f0b8200)" style="fill: none; stroke-dasharray: 2.96,1.28; stroke-dashoffset: 0; stroke: #b0b0b0; stroke-opacity: 0.5; stroke-width: 0.8"/>
     </g>
     <g id="line2d_4">
      <g>
       <use xlink:href="#m1488b96c64" x="189.818182" y="303.19" style="stroke: #000000; stroke-width: 0.8"/>
      </g>
     </g>
     <g id="text_2">
      <!-- $-\frac{\pi}{2}$ -->
      <g transform="translate(181.358182 320.27) scale(0.12 -0.12)">
       <defs>
        <path id="DejaVuSans-32" d="M 1228 531 
L 3431 531 
L 3431 0 
L 469 0 
L 469 531 
Q 828 903 1448 1529 
Q 2069 2156 2228 2338 
Q 2531 2678 2651 2914 
Q 2772 3150 2772 3378 
Q 2772 3750 2511 3984 
Q 2250 4219 1831 4219 
Q 1534 4219 1204 4116 
Q 875 4013 500 3803 
L 500 4441 
Q 881 4594 1212 4672 
Q 1544 4750 1819 4750 
Q 2544 4750 2975 4387 
Q 3406 4025 3406 3419 
Q 3406 3131 3298 2873 
Q 3191 2616 2906 2266 
Q 2828 2175 2409 1742 
Q 1991 1309 1228 531 
z
" transform="scale(0.015625)"/>
       </defs>
       <use xlink:href="#DejaVuSans-2212" transform="translate(0 0.5875)"/>
       <use xlink:href="#DejaVuSans-Oblique-3c0" transform="translate(84.789062 45.71875) scale(0.7)"/>
       <use xlink:href="#DejaVuSans-32" transform="translate(83.789062 -38.81875) scale(0.7)"/>
       <path d="M 83.789062 19.384375 
L 83.789062 25.634375 
L 128.325195 25.634375 
L 128.325195 19.384375 
L 83.789062 19.384375 
z
"/>
      </g>
     </g>
    </g>
    <g id="xtick_3">
     <g id="line2d_5">
      <path d="M 342 580.39 
L 342 25.99 
" clip-path="url(#p230f0b8200)" style="fill: none; stroke-dasharray: 2.96,1.28; stroke-dashoffset: 0; stroke: #b0b0b0; stroke-opacity: 0.5; stroke-width: 0.8"/>
     </g>
     <g id="line2d_6">
      <g>
       <use xlink:href="#m1488b96c64" x="342" y="303.19" style="stroke: #000000; stroke-width: 0.8"/>
      </g>
     </g>
     <g id="text_3">
      <!-- 0 -->
      <g transform="translate(338.481562 319.7825) scale(0.12 -0.12)">
       <defs>
        <path id="MicrosoftYaHei-30" d="M 284 2325 
Q 284 3606 709 4264 
Q 1134 4922 1941 4922 
Q 3478 4922 3478 2441 
Q 3478 1216 3045 567 
Q 2613 -81 1831 -81 
Q 1094 -81 689 534 
Q 284 1150 284 2325 
z
M 909 2353 
Q 909 425 1888 425 
Q 2850 425 2850 2384 
Q 2850 4413 1906 4413 
Q 909 4413 909 2353 
z
" transform="scale(0.015625)"/>
       </defs>
       <use xlink:href="#MicrosoftYaHei-30"/>
      </g>
     </g>
    </g>
    <g id="xtick_4">
     <g id="line2d_7">
      <path d="M 494.181818 580.39 
L 494.181818 25.99 
" clip-path="url(#p230f0b8200)" style="fill: none; stroke-dasharray: 2.96,1.28; stroke-dashoffset: 0; stroke: #b0b0b0; stroke-opacity: 0.5; stroke-width: 0.8"/>
     </g>
     <g id="line2d_8">
      <g>
       <use xlink:href="#m1488b96c64" x="494.181818" y="303.19" style="stroke: #000000; stroke-width: 0.8"/>
      </g>
     </g>
     <g id="text_4">
      <!-- $\frac{\pi}{2}$ -->
      <g transform="translate(490.701818 320.27) scale(0.12 -0.12)">
       <use xlink:href="#DejaVuSans-Oblique-3c0" transform="translate(1 45.71875) scale(0.7)"/>
       <use xlink:href="#DejaVuSans-32" transform="translate(0 -38.81875) scale(0.7)"/>
       <path d="M 0 19.384375 
L 0 25.634375 
L 44.536133 25.634375 
L 44.536133 19.384375 
L 0 19.384375 
z
"/>
      </g>
     </g>
    </g>
    <g id="xtick_5">
     <g id="line2d_9">
      <path d="M 646.363636 580.39 
L 646.363636 25.99 
" clip-path="url(#p230f0b8200)" style="fill: none; stroke-dasharray: 2.96,1.28; stroke-dashoffset: 0; stroke: #b0b0b0; stroke-opacity: 0.5; stroke-width: 0.8"/>
     </g>
     <g id="line2d_10">
      <g>
       <use xlink:href="#m1488b96c64" x="646.363636" y="303.19" style="stroke: #000000; stroke-width: 0.8"/>
      </g>
     </g>
     <g id="text_5">
      <!-- $\pi$ -->
      <g transform="translate(642.703636 319.7825) scale(0.12 -0.12)">
       <use xlink:href="#DejaVuSans-Oblique-3c0" transform="translate(0 0.3125)"/>
      </g>
     </g>
    </g>
   </g>
   <g id="matplotlib.axis_2">
    <g id="ytick_1">
     <g id="line2d_11">
      <path d="M 7.2 524.95 
L 676.8 524.95 
" clip-path="url(#p230f0b8200)" style="fill: none; stroke-dasharray: 2.96,1.28; stroke-dashoffset: 0; stroke: #b0b0b0; stroke-opacity: 0.5; stroke-width: 0.8"/>
     </g>
     <g id="line2d_12">
      <defs>
       <path id="m5d555e2134" d="M 0 0 
L -3.5 0 
" style="stroke: #000000; stroke-width: 0.8"/>
      </defs>
      <g>
       <use xlink:href="#m5d555e2134" x="342" y="524.95" style="stroke: #000000; stroke-width: 0.8"/>
      </g>
     </g>
     <g id="text_6">
      <!-- -2 -->
      <g transform="translate(324.809375 528.946875) scale(0.1 -0.1)">
       <defs>
        <path id="MicrosoftYaHei-2d" d="M 2328 1681 
L 488 1681 
L 488 2153 
L 2328 2153 
L 2328 1681 
z
" transform="scale(0.015625)"/>
        <path id="MicrosoftYaHei-32" d="M 2666 3572 
Q 2666 3963 2419 4186 
Q 2172 4409 1747 4409 
Q 1447 4409 1140 4256 
Q 834 4103 569 3819 
L 569 4413 
Q 806 4659 1107 4790 
Q 1409 4922 1816 4922 
Q 2472 4922 2872 4570 
Q 3272 4219 3272 3619 
Q 3272 3084 3026 2693 
Q 2781 2303 2188 1894 
Q 1581 1475 1376 1294 
Q 1172 1113 1090 947 
Q 1009 781 1009 544 
L 3416 544 
L 3416 0 
L 372 0 
L 372 241 
Q 372 659 486 951 
Q 600 1244 862 1520 
Q 1125 1797 1681 2184 
Q 2250 2584 2458 2886 
Q 2666 3188 2666 3572 
z
" transform="scale(0.015625)"/>
       </defs>
       <use xlink:href="#MicrosoftYaHei-2d"/>
       <use xlink:href="#MicrosoftYaHei-32" x="43.261719"/>
      </g>
     </g>
    </g>
    <g id="ytick_2">
     <g id="line2d_13">
      <path d="M 7.2 414.07 
L 676.8 414.07 
" clip-path="url(#p230f0b8200)" style="fill: none; stroke-dasharray: 2.96,1.28; stroke-dashoffset: 0; stroke: #b0b0b0; stroke-opacity: 0.5; stroke-width: 0.8"/>
     </g>
     <g id="line2d_14">
      <g>
       <use xlink:href="#m5d555e2134" x="342" y="414.07" style="stroke: #000000; stroke-width: 0.8"/>
      </g>
     </g>
     <g id="text_7">
      <!-- -1 -->
      <g transform="translate(324.809375 418.066875) scale(0.1 -0.1)">
       <defs>
        <path id="MicrosoftYaHei-31" d="M 1781 0 
L 1781 4141 
Q 1638 3997 1295 3819 
Q 953 3641 663 3569 
L 663 4169 
Q 1047 4275 1484 4508 
Q 1922 4741 2156 4947 
L 2388 4947 
L 2388 0 
L 1781 0 
z
" transform="scale(0.015625)"/>
       </defs>
       <use xlink:href="#MicrosoftYaHei-2d"/>
       <use xlink:href="#MicrosoftYaHei-31" x="43.261719"/>
      </g>
     </g>
    </g>
    <g id="ytick_3">
     <g id="line2d_15">
      <path d="M 7.2 303.19 
L 676.8 303.19 
" clip-path="url(#p230f0b8200)" style="fill: none; stroke-dasharray: 2.96,1.28; stroke-dashoffset: 0; stroke: #b0b0b0; stroke-opacity: 0.5; stroke-width: 0.8"/>
     </g>
     <g id="line2d_16">
      <g>
       <use xlink:href="#m5d555e2134" x="342" y="303.19" style="stroke: #000000; stroke-width: 0.8"/>
      </g>
     </g>
     <g id="text_8">
      <!-- 0 -->
      <g transform="translate(329.135938 307.186875) scale(0.1 -0.1)">
       <use xlink:href="#MicrosoftYaHei-30"/>
      </g>
     </g>
    </g>
    <g id="ytick_4">
     <g id="line2d_17">
      <path d="M 7.2 192.31 
L 676.8 192.31 
" clip-path="url(#p230f0b8200)" style="fill: none; stroke-dasharray: 2.96,1.28; stroke-dashoffset: 0; stroke: #b0b0b0; stroke-opacity: 0.5; stroke-width: 0.8"/>
     </g>
     <g id="line2d_18">
      <g>
       <use xlink:href="#m5d555e2134" x="342" y="192.31" style="stroke: #000000; stroke-width: 0.8"/>
      </g>
     </g>
     <g id="text_9">
      <!-- 1 -->
      <g transform="translate(329.135938 196.306875) scale(0.1 -0.1)">
       <use xlink:href="#MicrosoftYaHei-31"/>
      </g>
     </g>
    </g>
    <g id="ytick_5">
     <g id="line2d_19">
      <path d="M 7.2 81.43 
L 676.8 81.43 
" clip-path="url(#p230f0b8200)" style="fill: none; stroke-dasharray: 2.96,1.28; stroke-dashoffset: 0; stroke: #b0b0b0; stroke-opacity: 0.5; stroke-width: 0.8"/>
     </g>
     <g id="line2d_20">
      <g>
       <use xlink:href="#m5d555e2134" x="342" y="81.43" style="stroke: #000000; stroke-width: 0.8"/>
      </g>
     </g>
     <g id="text_10">
      <!-- 2 -->
      <g transform="translate(329.135938 85.426875) scale(0.1 -0.1)">
       <use xlink:href="#MicrosoftYaHei-32"/>
      </g>
     </g>
    </g>
   </g>
   <g id="line2d_21">
    <path d="M 7.2 299.690232 
L 30.659459 298.731371 
L 51.437838 297.664838 
L 70.205405 296.483828 
L 87.632432 295.162226 
L 103.048649 293.777571 
L 117.794595 292.230175 
L 131.2 290.603753 
L 143.935135 288.835625 
L 156 286.931979 
L 167.394595 284.902833 
L 178.118919 282.76225 
L 188.172973 280.528428 
L 197.556757 278.223659 
L 206.940541 275.684487 
L 215.654054 273.095996 
L 224.367568 270.263907 
L 232.410811 267.41367 
L 240.454054 264.316703 
L 247.827027 261.242862 
L 255.2 257.925962 
L 262.572973 254.346784 
L 269.275676 250.847968 
L 275.978378 247.098519 
L 282.681081 243.080484 
L 288.713514 239.218737 
L 294.745946 235.108892 
L 300.778378 230.735008 
L 306.810811 226.080124 
L 312.843243 221.126186 
L 318.875676 215.853981 
L 324.237838 210.883889 
L 329.6 205.630961 
L 334.962162 200.079101 
L 340.324324 194.211297 
L 345.686486 188.00957 
L 351.048649 181.454917 
L 356.410811 174.527253 
L 361.772973 167.205353 
L 367.135135 159.466779 
L 372.497297 151.287822 
L 377.189189 143.750314 
L 381.881081 135.83879 
L 386.572973 127.534689 
L 391.264865 118.818532 
L 395.956757 109.669872 
L 400.648649 100.067249 
L 405.340541 89.988135 
L 410.032432 79.408888 
L 414.724324 68.30469 
L 419.416216 56.649494 
L 424.108108 44.415956 
L 428.8 31.575381 
L 433.491892 18.097647 
L 438.183784 3.951136 
L 439.773112 -1 
L 439.773112 -1 
" clip-path="url(#p230f0b8200)" style="fill: none; stroke: #0000ff; stroke-width: 1.5; stroke-linecap: square"/>
   </g>
   <g id="line2d_22">
    <path d="M 7.2 268.926196 
L 17.254054 280.034441 
L 30.659459 295.211934 
L 60.151351 328.726758 
L 70.205405 339.766673 
L 78.918919 349.020421 
L 86.962162 357.235172 
L 94.335135 364.439648 
L 101.037838 370.682551 
L 107.07027 376.025887 
L 113.102703 381.086926 
L 119.135135 385.846055 
L 124.497297 389.807996 
L 129.859459 393.504665 
L 135.221622 396.924741 
L 140.583784 400.05775 
L 145.275676 402.556082 
L 149.967568 404.821411 
L 154.659459 406.848423 
L 159.351351 408.632366 
L 164.043243 410.169057 
L 168.735135 411.454892 
L 173.427027 412.486856 
L 178.118919 413.26253 
L 182.810811 413.780093 
L 187.502703 414.038334 
L 191.524324 414.052807 
L 195.545946 413.876277 
L 200.237838 413.429343 
L 204.92973 412.723908 
L 209.621622 411.761627 
L 214.313514 410.544755 
L 219.005405 409.076147 
L 223.697297 407.359245 
L 228.389189 405.398077 
L 233.081081 403.19724 
L 237.772973 400.761896 
L 242.464865 398.097755 
L 247.827027 394.780901 
L 253.189189 391.183545 
L 258.551351 387.316704 
L 263.913514 383.192222 
L 269.945946 378.259973 
L 275.978378 373.036769 
L 282.681081 366.916625 
L 289.383784 360.491577 
L 296.756757 353.108591 
L 304.8 344.726379 
L 313.513514 335.324625 
L 324.237838 323.404846 
L 338.983784 306.641458 
L 362.443243 279.966246 
L 373.167568 268.131285 
L 381.881081 258.824863 
L 389.924324 250.550966 
L 397.297297 243.283752 
L 404 236.977055 
L 410.702703 230.987158 
L 416.735135 225.890833 
L 422.767568 221.094103 
L 428.12973 217.096911 
L 433.491892 213.363383 
L 438.854054 209.904954 
L 444.216216 206.732215 
L 448.908108 204.198084 
L 453.6 201.89608 
L 458.291892 199.8316 
L 462.983784 198.009486 
L 467.675676 196.434011 
L 472.367568 195.108868 
L 477.059459 194.037165 
L 481.751351 193.221416 
L 486.443243 192.663532 
L 491.135135 192.364822 
L 495.156757 192.315614 
L 499.178378 192.457429 
L 503.87027 192.863967 
L 508.562162 193.52921 
L 513.254054 194.451596 
L 517.945946 195.628964 
L 522.637838 197.058553 
L 527.32973 198.737009 
L 532.021622 200.660398 
L 536.713514 202.824209 
L 541.405405 205.223369 
L 546.097297 207.852251 
L 551.459459 211.130048 
L 556.821622 214.689783 
L 562.183784 218.520555 
L 567.545946 222.610632 
L 573.578378 227.506292 
L 579.610811 232.695284 
L 586.313514 238.780368 
L 593.016216 245.173622 
L 600.389189 252.525591 
L 608.432432 260.878895 
L 617.145946 270.255361 
L 627.2 281.400238 
L 641.275676 297.369579 
L 667.416216 327.095199 
L 676.8 337.453804 
L 676.8 337.453804 
" clip-path="url(#p230f0b8200)" style="fill: none; stroke: #ff0000; stroke-width: 1.5; stroke-linecap: square"/>
   </g>
   <g id="line2d_23">
    <path d="M 7.2 408.643147 
L 11.891892 410.178219 
L 16.583784 411.462415 
L 21.275676 412.492722 
L 25.967568 413.266725 
L 30.659459 413.782608 
L 35.351351 414.039161 
L 39.372973 414.052187 
L 43.394595 413.874211 
L 48.086486 413.425595 
L 52.778378 412.718486 
L 57.47027 411.754544 
L 62.162162 410.536027 
L 66.854054 409.065795 
L 71.545946 407.347294 
L 76.237838 405.384554 
L 80.92973 403.182177 
L 85.621622 400.745328 
L 90.313514 398.079721 
L 95.675676 394.761244 
L 101.037838 391.162325 
L 106.4 387.293986 
L 111.762162 383.168075 
L 117.794595 378.234307 
L 123.827027 373.009684 
L 130.52973 366.888087 
L 137.232432 360.461723 
L 144.605405 353.077453 
L 152.648649 344.694047 
L 161.362162 335.291251 
L 172.086486 323.370561 
L 186.832432 306.606606 
L 210.291892 279.932152 
L 221.016216 268.098207 
L 229.72973 258.792909 
L 237.772973 250.520279 
L 245.145946 243.254413 
L 251.848649 236.94909 
L 258.551351 230.960699 
L 264.583784 225.865838 
L 270.616216 221.07067 
L 275.978378 217.074942 
L 281.340541 213.342945 
L 286.702703 209.88611 
L 292.064865 206.715023 
L 296.756757 204.182381 
L 301.448649 201.881902 
L 306.140541 199.818982 
L 310.832432 197.998456 
L 315.524324 196.424595 
L 320.216216 195.101088 
L 324.908108 194.03104 
L 329.6 193.216959 
L 334.291892 192.660755 
L 338.983784 192.363731 
L 343.005405 192.315971 
L 347.027027 192.459232 
L 351.718919 192.867454 
L 356.410811 193.534372 
L 361.102703 194.458422 
L 365.794595 195.637437 
L 370.486486 197.068653 
L 375.178378 198.748713 
L 379.87027 200.673678 
L 384.562162 202.839035 
L 389.254054 205.239705 
L 393.945946 207.870059 
L 399.308108 211.149487 
L 404.67027 214.710794 
L 410.032432 218.543074 
L 415.394595 222.634588 
L 421.427027 227.531778 
L 427.459459 232.722202 
L 434.162162 238.808753 
L 440.864865 245.203339 
L 448.237838 252.556609 
L 456.281081 260.911128 
L 464.994595 270.288658 
L 475.048649 281.434428 
L 489.124324 297.4044 
L 515.264865 327.129247 
L 525.989189 338.942625 
L 534.702703 348.225242 
L 542.745946 356.472351 
L 550.118919 363.711111 
L 556.821622 369.988848 
L 563.524324 375.946982 
L 569.556757 381.012448 
L 575.589189 385.776292 
L 580.951351 389.742652 
L 586.313514 393.44394 
L 591.675676 396.868821 
L 597.037838 400.006805 
L 601.72973 402.509621 
L 606.421622 404.779541 
L 611.113514 406.811243 
L 615.805405 408.599963 
L 620.497297 410.141507 
L 625.189189 411.432259 
L 629.881081 412.469194 
L 634.572973 413.249879 
L 639.264865 413.772485 
L 643.956757 414.035784 
L 647.978378 414.0546 
L 652 413.882409 
L 656.691892 413.440523 
L 661.383784 412.74011 
L 666.075676 411.782812 
L 670.767568 410.570875 
L 675.459459 409.10714 
L 676.8 408.643147 
L 676.8 408.643147 
" clip-path="url(#p230f0b8200)" style="fill: none; stroke: #008000; stroke-width: 1.5; stroke-linecap: square"/>
   </g>
   <g id="line2d_24">
    <path d="M 252.516064 588.59 
L 253.863927 569.846463 
L 255.593727 549.835549 
L 257.323527 532.889911 
L 259.053327 518.19402 
L 260.783127 505.219922 
L 262.512926 493.606144 
L 264.242726 483.094306 
L 266.837426 468.987566 
L 269.432126 456.474687 
L 272.026826 445.231786 
L 274.621526 435.024662 
L 277.216225 425.678465 
L 279.810925 417.059192 
L 282.405625 409.061882 
L 285.865225 399.223906 
L 289.324825 390.188125 
L 292.784424 381.833521 
L 296.244024 374.064553 
L 299.703624 366.804468 
L 303.163224 359.990678 
L 307.487724 352.023109 
L 311.812223 344.589888 
L 316.136723 337.623825 
L 320.461223 331.069656 
L 324.785722 324.88138 
L 329.975122 317.884359 
L 335.164522 311.302794 
L 340.353921 305.090101 
L 345.543321 299.207118 
L 351.597621 292.716285 
L 357.65192 286.584499 
L 363.70622 280.774111 
L 369.76052 275.253101 
L 376.679719 269.262664 
L 383.598919 263.579346 
L 390.518118 258.173187 
L 398.302218 252.390587 
L 406.086317 246.894671 
L 413.870417 241.658352 
L 422.519416 236.116302 
L 431.168416 230.83812 
L 440.682315 225.308354 
L 450.196214 220.041316 
L 460.575014 214.567172 
L 470.953813 209.350618 
L 482.197512 203.963253 
L 493.441212 198.825562 
L 505.549811 193.546576 
L 517.65841 188.507541 
L 530.631909 183.351194 
L 544.470308 178.103196 
L 558.308708 173.092403 
L 573.012007 168.005437 
L 588.580206 162.862082 
L 605.013305 157.679984 
L 621.446404 152.729301 
L 638.744402 147.746346 
L 656.907301 142.744596 
L 675.9351 137.735944 
L 676.8 137.513567 
L 676.8 137.513567 
" clip-path="url(#p230f0b8200)" style="fill: none; stroke: #ffa500; stroke-width: 1.5; stroke-linecap: square"/>
   </g>
   <g id="line2d_25">
    <path d="M 92.630323 588.59 
L 607.787534 -1 
L 607.787534 -1 
" clip-path="url(#p230f0b8200)" style="fill: none; stroke-dasharray: 5.55,2.4; stroke-dashoffset: 0; stroke: #808080; stroke-width: 1.5"/>
   </g>
   <g id="line2d_26">
    <path d="M 7.2 339.217096 
L 13.902703 330.909573 
L 21.945946 321.306124 
L 32.67027 308.878605 
L 54.789189 283.351112 
L 62.832432 273.685246 
L 69.535135 265.30324 
L 75.567568 257.415118 
L 80.92973 250.05663 
L 86.291892 242.296759 
L 90.983784 235.11068 
L 95.675676 227.483795 
L 99.697297 220.534459 
L 103.718919 213.141045 
L 107.740541 205.23144 
L 111.091892 198.183976 
L 114.443243 190.658932 
L 117.794595 182.586072 
L 121.145946 173.881703 
L 124.497297 164.445216 
L 127.178378 156.287706 
L 129.859459 147.509087 
L 132.540541 138.020512 
L 135.221622 127.715781 
L 137.902703 116.466861 
L 140.583784 104.117935 
L 143.264865 90.477396 
L 145.275676 79.258151 
L 147.286486 67.057052 
L 149.297297 53.727304 
L 151.308108 39.091485 
L 153.318919 22.933113 
L 155.32973 4.985259 
L 155.953101 -1 
M 225.718929 588.59 
L 227.718919 572.013066 
L 229.72973 556.940789 
L 231.740541 543.235602 
L 233.751351 530.709256 
L 236.432432 515.576606 
L 239.113514 501.967867 
L 241.794595 489.645915 
L 244.475676 478.420067 
L 247.156757 468.135214 
L 249.837838 458.66388 
L 252.518919 449.900306 
L 255.87027 439.807665 
L 259.221622 430.540501 
L 262.572973 421.981849 
L 265.924324 414.035137 
L 269.275676 406.619873 
L 272.627027 399.668378 
L 276.648649 391.858588 
L 280.67027 384.550913 
L 284.691892 377.675494 
L 289.383784 370.12228 
L 294.075676 362.998469 
L 299.437838 355.29804 
L 304.8 347.988428 
L 310.832432 340.144589 
L 317.535135 331.800425 
L 325.578378 322.166393 
L 336.302703 309.718001 
L 359.762162 282.63059 
L 367.805405 272.937228 
L 374.508108 264.522754 
L 380.540541 256.596751 
L 385.902703 249.196511 
L 391.264865 241.385895 
L 395.956757 234.146668 
L 400.648649 226.456889 
L 404.67027 219.444427 
L 408.691892 211.977752 
L 412.713514 203.982799 
L 416.064865 196.853209 
L 419.416216 189.234142 
L 422.767568 181.05313 
L 426.118919 172.223694 
L 429.47027 162.641692 
L 432.151351 154.350053 
L 434.832432 145.418445 
L 437.513514 135.754409 
L 440.194595 125.247224 
L 442.875676 113.763126 
L 445.556757 101.138955 
L 448.237838 87.173575 
L 450.248649 75.670744 
L 452.259459 63.144398 
L 454.27027 49.439211 
L 456.281081 34.366934 
L 458.291892 17.697164 
L 460.317276 -1 
M 530.083517 588.59 
L 532.021622 572.493452 
L 534.032432 557.376391 
L 536.043243 543.632731 
L 538.054054 531.073091 
L 540.735135 515.902604 
L 543.416216 502.262065 
L 546.097297 489.913139 
L 548.778378 478.664219 
L 551.459459 468.359488 
L 554.140541 458.870913 
L 556.821622 450.092294 
L 560.172973 439.983409 
L 563.524324 430.70235 
L 566.875676 422.131732 
L 570.227027 414.174656 
L 573.578378 406.750368 
L 576.92973 399.790981 
L 580.951351 391.972979 
L 584.972973 384.658248 
L 588.994595 377.776745 
L 593.686486 370.217466 
L 598.378378 363.088528 
L 603.740541 355.383204 
L 609.102703 348.06957 
L 615.135135 340.22209 
L 621.837838 331.874818 
L 629.881081 322.238181 
L 640.605405 309.787983 
L 664.064865 282.702717 
L 672.108108 273.012145 
L 676.8 267.162904 
L 676.8 267.162904 
" clip-path="url(#p230f0b8200)" style="fill: none; stroke: #800080; stroke-width: 1.5; stroke-linecap: square"/>
   </g>
   <g id="line2d_27">
    <path d="M 245.118046 477.359897 
L 245.603669 466.253368 
L 246.089293 461.646313 
L 247.060541 455.118857 
L 248.031789 450.09732 
L 249.48866 443.927741 
L 250.945532 438.706406 
L 252.888027 432.650073 
L 254.830522 427.286328 
L 257.258641 421.253813 
L 260.172384 414.717445 
L 263.086127 408.739942 
L 266.485494 402.292902 
L 270.370485 395.453477 
L 274.255475 389.049395 
L 278.62609 382.251752 
L 283.482328 375.098243 
L 288.82419 367.612879 
L 295.1373 359.171963 
L 301.936034 350.461682 
L 309.706015 340.871117 
L 318.932868 329.84602 
L 330.58784 316.281448 
L 369.437746 271.352201 
L 378.178975 260.755378 
L 385.948957 250.98338 
L 392.74769 242.059974 
L 398.575176 234.04543 
L 403.917039 226.314168 
L 408.773277 218.875052 
L 413.143891 211.748627 
L 417.028882 204.969916 
L 420.428249 198.592399 
L 423.341992 192.693136 
L 426.255735 186.262395 
L 428.683854 180.352524 
L 430.626349 175.125794 
L 432.568845 169.269137 
L 434.025716 164.275675 
L 435.482588 158.479504 
L 436.453835 153.896817 
L 437.425083 148.273312 
L 437.910707 144.733687 
L 438.396331 140.126632 
L 438.881954 129.020103 
L 438.881954 129.020103 
" clip-path="url(#p230f0b8200)" style="fill: none; stroke: #a52a2a; stroke-width: 1.5; stroke-linecap: square"/>
   </g>
   <g id="line2d_28">
    <path d="M 7.2 446.127372 
L 27.978378 444.178516 
L 46.745946 442.204172 
L 64.172973 440.156552 
L 80.259459 438.05211 
L 95.675676 435.81024 
L 109.751351 433.540033 
L 123.156757 431.148785 
L 135.221622 428.777104 
L 146.616216 426.31897 
L 157.340541 423.785547 
L 167.394595 421.191572 
L 176.778378 418.555638 
L 186.162162 415.687164 
L 194.875676 412.791123 
L 202.918919 409.897055 
L 210.962162 406.7686 
L 218.335135 403.674455 
L 225.708108 400.343049 
L 233.081081 396.752763 
L 239.783784 393.244948 
L 246.486486 389.486311 
L 253.189189 385.458576 
L 259.221622 381.588534 
L 265.254054 377.47314 
L 271.286486 373.100761 
L 277.318919 368.461472 
L 283.351351 363.547837 
L 289.383784 358.355827 
L 295.416216 352.885819 
L 302.118919 346.489266 
L 308.821622 339.774151 
L 316.194595 332.053768 
L 324.237838 323.295258 
L 334.291892 311.993275 
L 361.772973 280.8667 
L 369.816216 272.188646 
L 377.189189 264.559329 
L 383.891892 257.937327 
L 390.594595 251.640192 
L 396.627027 246.262494 
L 402.659459 241.163473 
L 408.691892 236.341922 
L 414.724324 231.792569 
L 420.756757 227.507054 
L 426.789189 223.474801 
L 433.491892 219.276867 
L 440.194595 215.358968 
L 446.897297 211.702844 
L 453.6 208.290304 
L 460.972973 204.796745 
L 468.345946 201.554042 
L 475.718919 198.5411 
L 483.762162 195.493336 
L 491.805405 192.672434 
L 500.518919 189.847988 
L 509.902703 187.048641 
L 519.286486 184.474507 
L 529.340541 181.939602 
L 540.064865 179.462075 
L 551.459459 177.056371 
L 563.524324 174.733494 
L 576.259459 172.50136 
L 590.335135 170.263616 
L 605.081081 168.143848 
L 621.167568 166.057824 
L 638.594595 164.027303 
L 657.362162 162.068659 
L 676.8 160.252628 
L 676.8 160.252628 
" clip-path="url(#p230f0b8200)" style="fill: none; stroke: #ffc0cb; stroke-width: 1.5; stroke-linecap: square"/>
   </g>
   <g id="line2d_29">
    <path d="M 7.2 348.341141 
L 18.594595 350.612336 
L 29.318919 352.96903 
L 39.372973 355.40156 
L 48.756757 357.896664 
L 57.47027 360.436994 
L 65.513514 363.000691 
L 73.556757 365.804773 
L 80.92973 368.616526 
L 87.632432 371.401127 
L 94.335135 374.433293 
L 100.367568 377.402336 
L 106.4 380.629608 
L 111.762162 383.74341 
L 117.124324 387.11811 
L 121.816216 390.31175 
L 126.508108 393.758053 
L 131.2 397.488239 
L 135.891892 401.538891 
L 139.913514 405.298444 
L 143.935135 409.356852 
L 147.956757 413.751225 
L 151.978378 418.525082 
L 155.32973 422.829967 
L 158.681081 427.468671 
L 162.032432 432.481591 
L 165.383784 437.915912 
L 168.735135 443.827101 
L 172.086486 450.280809 
L 174.767568 455.886491 
L 177.448649 461.93637 
L 180.12973 468.485422 
L 182.810811 475.598086 
L 185.491892 483.35039 
L 188.172973 491.83268 
L 190.854054 501.153158 
L 193.535135 511.442521 
L 196.216216 522.860128 
L 198.227027 532.280164 
L 200.237838 542.544309 
L 202.248649 553.771344 
L 204.259459 566.103432 
L 206.27027 579.71217 
L 207.476804 588.59 
M 280.435305 -1 
L 282.010811 12.014453 
L 284.021622 27.064456 
L 286.032432 40.63514 
L 288.043243 52.9344 
L 290.054054 64.132917 
L 292.064865 74.372132 
L 294.745946 86.733712 
L 297.427027 97.828114 
L 300.108108 107.840684 
L 302.789189 116.922303 
L 305.47027 125.19704 
L 308.151351 132.767856 
L 310.832432 139.720909 
L 313.513514 146.128846 
L 316.194595 152.053356 
L 319.545946 158.858761 
L 322.897297 165.077703 
L 326.248649 170.78286 
L 329.6 176.035377 
L 332.951351 180.887065 
L 336.302703 185.38212 
L 339.654054 189.558472 
L 343.675676 194.19518 
L 347.697297 198.468325 
L 351.718919 202.419052 
L 355.740541 206.082526 
L 360.432432 210.033618 
L 365.124324 213.675758 
L 369.816216 217.04382 
L 375.178378 220.595477 
L 380.540541 223.865874 
L 385.902703 226.887146 
L 391.935135 230.022284 
L 397.967568 232.909956 
L 404.67027 235.862383 
L 411.372973 238.57675 
L 418.745946 241.320502 
L 426.789189 244.05969 
L 434.832432 246.566613 
L 443.545946 249.053101 
L 452.92973 251.497665 
L 462.983784 253.88316 
L 473.708108 256.196395 
L 485.102703 258.427675 
L 497.167568 260.570315 
L 510.572973 262.722599 
L 524.648649 264.760322 
L 540.064865 266.768956 
L 556.821622 268.726901 
L 574.918919 270.618009 
L 595.027027 272.489813 
L 616.475676 274.262976 
L 640.605405 276.02789 
L 666.745946 277.711916 
L 676.8 278.305311 
L 676.8 278.305311 
" clip-path="url(#p230f0b8200)" style="fill: none; stroke: #008080; stroke-width: 1.5; stroke-linecap: square"/>
   </g>
   <g id="line2d_30">
    <path d="M 7.2 278.305311 
L 35.351351 276.56929 
L 60.821622 274.775829 
L 83.610811 272.953176 
L 104.389189 271.074893 
L 123.827027 269.093498 
L 141.254054 267.097043 
L 157.340541 265.034792 
L 172.086486 262.925931 
L 185.491892 260.795792 
L 198.227027 258.552347 
L 210.291892 256.196395 
L 221.016216 253.88316 
L 231.07027 251.497665 
L 240.454054 249.053101 
L 249.167568 246.566613 
L 257.881081 243.840722 
L 265.924324 241.080736 
L 273.297297 238.315202 
L 280 235.57835 
L 286.702703 232.600409 
L 292.735135 229.686716 
L 298.767568 226.522133 
L 304.12973 223.471308 
L 309.491892 220.167619 
L 314.854054 216.578269 
L 319.545946 213.172986 
L 324.237838 209.488976 
L 328.92973 205.490557 
L 332.951351 201.781429 
L 336.972973 197.779555 
L 340.994595 193.448853 
L 345.016216 188.747059 
L 348.367568 184.509738 
L 351.718919 179.946574 
L 355.07027 175.018478 
L 358.421622 169.67985 
L 361.772973 163.877161 
L 365.124324 157.547155 
L 367.805405 152.053356 
L 370.486486 146.128846 
L 373.167568 139.720909 
L 375.848649 132.767856 
L 378.52973 125.19704 
L 381.210811 116.922303 
L 383.891892 107.840684 
L 386.572973 97.828114 
L 389.254054 86.733712 
L 391.264865 77.59303 
L 393.275676 67.646312 
L 395.286486 56.782022 
L 397.297297 44.867055 
L 399.308108 31.74125 
L 401.318919 17.210154 
L 403.564695 -1 
M 476.523196 588.59 
L 478.4 575.022044 
L 480.410811 561.860044 
L 482.421622 549.913776 
L 484.432432 539.022237 
L 487.113514 525.912867 
L 489.794595 514.184187 
L 492.475676 503.628985 
L 495.156757 494.07954 
L 497.837838 485.398636 
L 500.518919 477.472936 
L 503.2 470.207997 
L 505.881081 463.524495 
L 508.562162 457.355314 
L 511.243243 451.643286 
L 514.594595 445.072136 
L 517.945946 439.05806 
L 521.297297 433.533098 
L 524.648649 428.439914 
L 528 423.729797 
L 531.351351 419.361095 
L 535.372973 414.519233 
L 539.394595 410.064828 
L 543.416216 405.95316 
L 547.437838 402.146139 
L 551.459459 398.611116 
L 556.151351 394.793363 
L 560.843243 391.269351 
L 565.535135 388.006434 
L 570.897297 384.561384 
L 576.259459 381.38527 
L 581.621622 378.447784 
L 587.654054 375.396221 
L 593.686486 372.582485 
L 600.389189 369.702631 
L 607.762162 366.798822 
L 615.135135 364.137956 
L 623.178378 361.478006 
L 631.891892 358.84657 
L 640.605405 356.442465 
L 649.989189 354.075376 
L 660.043243 351.762113 
L 670.767568 349.515733 
L 676.8 348.341141 
L 676.8 348.341141 
" clip-path="url(#p230f0b8200)" style="fill: none; stroke: #ffd700; stroke-width: 1.5; stroke-linecap: square"/>
   </g>
   <g id="patch_3">
    <path d="M 342 580.39 
L 342 25.99 
" style="fill: none; stroke: #000000; stroke-width: 0.8; stroke-linejoin: miter; stroke-linecap: square"/>
   </g>
   <g id="patch_4">
    <path d="M 676.8 580.39 
L 676.8 25.99 
" style="fill: none"/>
   </g>
   <g id="patch_5">
    <path d="M 7.2 303.19 
L 676.8 303.19 
" style="fill: none; stroke: #000000; stroke-width: 0.8; stroke-linejoin: miter; stroke-linecap: square"/>
   </g>
   <g id="patch_6">
    <path d="M 7.2 25.99 
L 676.8 25.99 
" style="fill: none"/>
   </g>
   <g id="text_11">
    <!-- $e^x$ -->
    <g style="fill: #0000ff" transform="translate(112.511505 280.985299) scale(0.12 -0.12)">
     <defs>
      <path id="DejaVuSans-Oblique-65" d="M 3078 2063 
Q 3088 2113 3092 2166 
Q 3097 2219 3097 2272 
Q 3097 2653 2873 2875 
Q 2650 3097 2266 3097 
Q 1838 3097 1509 2826 
Q 1181 2556 1013 2059 
L 3078 2063 
z
M 3578 1613 
L 903 1613 
Q 884 1494 878 1425 
Q 872 1356 872 1306 
Q 872 872 1139 634 
Q 1406 397 1894 397 
Q 2269 397 2603 481 
Q 2938 566 3225 728 
L 3116 159 
Q 2806 34 2476 -28 
Q 2147 -91 1806 -91 
Q 1078 -91 686 257 
Q 294 606 294 1247 
Q 294 1794 489 2264 
Q 684 2734 1063 3103 
Q 1306 3334 1642 3459 
Q 1978 3584 2356 3584 
Q 2950 3584 3301 3228 
Q 3653 2872 3653 2272 
Q 3653 2128 3634 1964 
Q 3616 1800 3578 1613 
z
" transform="scale(0.015625)"/>
      <path id="DejaVuSans-Oblique-78" d="M 3841 3500 
L 2234 1784 
L 3219 0 
L 2559 0 
L 1819 1388 
L 531 0 
L -166 0 
L 1556 1844 
L 641 3500 
L 1300 3500 
L 1972 2234 
L 3144 3500 
L 3841 3500 
z
" transform="scale(0.015625)"/>
     </defs>
     <use xlink:href="#DejaVuSans-Oblique-65" transform="translate(0 0.4375)"/>
     <use xlink:href="#DejaVuSans-Oblique-78" transform="translate(66.173333 38.71875) scale(0.7)"/>
    </g>
   </g>
   <g id="text_12">
    <!-- $\sin(x)$ -->
    <g style="fill: #ff0000" transform="translate(172.958182 436.246) scale(0.12 -0.12)">
     <defs>
      <path id="DejaVuSans-73" d="M 2834 3397 
L 2834 2853 
Q 2591 2978 2328 3040 
Q 2066 3103 1784 3103 
Q 1356 3103 1142 2972 
Q 928 2841 928 2578 
Q 928 2378 1081 2264 
Q 1234 2150 1697 2047 
L 1894 2003 
Q 2506 1872 2764 1633 
Q 3022 1394 3022 966 
Q 3022 478 2636 193 
Q 2250 -91 1575 -91 
Q 1294 -91 989 -36 
Q 684 19 347 128 
L 347 722 
Q 666 556 975 473 
Q 1284 391 1588 391 
Q 1994 391 2212 530 
Q 2431 669 2431 922 
Q 2431 1156 2273 1281 
Q 2116 1406 1581 1522 
L 1381 1569 
Q 847 1681 609 1914 
Q 372 2147 372 2553 
Q 372 3047 722 3315 
Q 1072 3584 1716 3584 
Q 2034 3584 2315 3537 
Q 2597 3491 2834 3397 
z
" transform="scale(0.015625)"/>
      <path id="DejaVuSans-69" d="M 603 3500 
L 1178 3500 
L 1178 0 
L 603 0 
L 603 3500 
z
M 603 4863 
L 1178 4863 
L 1178 4134 
L 603 4134 
L 603 4863 
z
" transform="scale(0.015625)"/>
      <path id="DejaVuSans-6e" d="M 3513 2113 
L 3513 0 
L 2938 0 
L 2938 2094 
Q 2938 2591 2744 2837 
Q 2550 3084 2163 3084 
Q 1697 3084 1428 2787 
Q 1159 2491 1159 1978 
L 1159 0 
L 581 0 
L 581 3500 
L 1159 3500 
L 1159 2956 
Q 1366 3272 1645 3428 
Q 1925 3584 2291 3584 
Q 2894 3584 3203 3211 
Q 3513 2838 3513 2113 
z
" transform="scale(0.015625)"/>
      <path id="DejaVuSans-28" d="M 1984 4856 
Q 1566 4138 1362 3434 
Q 1159 2731 1159 2009 
Q 1159 1288 1364 580 
Q 1569 -128 1984 -844 
L 1484 -844 
Q 1016 -109 783 600 
Q 550 1309 550 2009 
Q 550 2706 781 3412 
Q 1013 4119 1484 4856 
L 1984 4856 
z
" transform="scale(0.015625)"/>
      <path id="DejaVuSans-29" d="M 513 4856 
L 1013 4856 
Q 1481 4119 1714 3412 
Q 1947 2706 1947 2009 
Q 1947 1309 1714 600 
Q 1481 -109 1013 -844 
L 513 -844 
Q 928 -128 1133 580 
Q 1338 1288 1338 2009 
Q 1338 2731 1133 3434 
Q 928 4138 513 4856 
z
" transform="scale(0.015625)"/>
     </defs>
     <use xlink:href="#DejaVuSans-73" transform="translate(0 0.015625)"/>
     <use xlink:href="#DejaVuSans-69" transform="translate(52.099609 0.015625)"/>
     <use xlink:href="#DejaVuSans-6e" transform="translate(79.882812 0.015625)"/>
     <use xlink:href="#DejaVuSans-28" transform="translate(143.261719 0.015625)"/>
     <use xlink:href="#DejaVuSans-Oblique-78" transform="translate(182.275391 0.015625)"/>
     <use xlink:href="#DejaVuSans-29" transform="translate(241.455078 0.015625)"/>
    </g>
   </g>
   <g id="text_13">
    <!-- $\cos(x)$ -->
    <g style="fill: #008000" transform="translate(19.276364 445.8385) scale(0.12 -0.12)">
     <defs>
      <path id="DejaVuSans-63" d="M 3122 3366 
L 3122 2828 
Q 2878 2963 2633 3030 
Q 2388 3097 2138 3097 
Q 1578 3097 1268 2742 
Q 959 2388 959 1747 
Q 959 1106 1268 751 
Q 1578 397 2138 397 
Q 2388 397 2633 464 
Q 2878 531 3122 666 
L 3122 134 
Q 2881 22 2623 -34 
Q 2366 -91 2075 -91 
Q 1284 -91 818 406 
Q 353 903 353 1747 
Q 353 2603 823 3093 
Q 1294 3584 2113 3584 
Q 2378 3584 2631 3529 
Q 2884 3475 3122 3366 
z
" transform="scale(0.015625)"/>
      <path id="DejaVuSans-6f" d="M 1959 3097 
Q 1497 3097 1228 2736 
Q 959 2375 959 1747 
Q 959 1119 1226 758 
Q 1494 397 1959 397 
Q 2419 397 2687 759 
Q 2956 1122 2956 1747 
Q 2956 2369 2687 2733 
Q 2419 3097 1959 3097 
z
M 1959 3584 
Q 2709 3584 3137 3096 
Q 3566 2609 3566 1747 
Q 3566 888 3137 398 
Q 2709 -91 1959 -91 
Q 1206 -91 779 398 
Q 353 888 353 1747 
Q 353 2609 779 3096 
Q 1206 3584 1959 3584 
z
" transform="scale(0.015625)"/>
     </defs>
     <use xlink:href="#DejaVuSans-63" transform="translate(0 0.125)"/>
     <use xlink:href="#DejaVuSans-6f" transform="translate(54.980469 0.125)"/>
     <use xlink:href="#DejaVuSans-73" transform="translate(116.162109 0.125)"/>
     <use xlink:href="#DejaVuSans-28" transform="translate(168.261719 0.125)"/>
     <use xlink:href="#DejaVuSans-Oblique-78" transform="translate(207.275391 0.125)"/>
     <use xlink:href="#DejaVuSans-29" transform="translate(266.455078 0.125)"/>
    </g>
   </g>
   <g id="text_14">
    <!-- $\ln(1+x)$ -->
    <g style="fill: #ffa500" transform="translate(510.863909 213.144369) scale(0.12 -0.12)">
     <defs>
      <path id="DejaVuSans-6c" d="M 603 4863 
L 1178 4863 
L 1178 0 
L 603 0 
L 603 4863 
z
" transform="scale(0.015625)"/>
      <path id="DejaVuSans-31" d="M 794 531 
L 1825 531 
L 1825 4091 
L 703 3866 
L 703 4441 
L 1819 4666 
L 2450 4666 
L 2450 531 
L 3481 531 
L 3481 0 
L 794 0 
L 794 531 
z
" transform="scale(0.015625)"/>
      <path id="DejaVuSans-2b" d="M 2944 4013 
L 2944 2272 
L 4684 2272 
L 4684 1741 
L 2944 1741 
L 2944 0 
L 2419 0 
L 2419 1741 
L 678 1741 
L 678 2272 
L 2419 2272 
L 2419 4013 
L 2944 4013 
z
" transform="scale(0.015625)"/>
     </defs>
     <use xlink:href="#DejaVuSans-6c" transform="translate(0 0.015625)"/>
     <use xlink:href="#DejaVuSans-6e" transform="translate(27.783203 0.015625)"/>
     <use xlink:href="#DejaVuSans-28" transform="translate(91.162109 0.015625)"/>
     <use xlink:href="#DejaVuSans-31" transform="translate(130.175781 0.015625)"/>
     <use xlink:href="#DejaVuSans-2b" transform="translate(213.28125 0.015625)"/>
     <use xlink:href="#DejaVuSans-Oblique-78" transform="translate(316.552734 0.015625)"/>
     <use xlink:href="#DejaVuSans-29" transform="translate(375.732422 0.015625)"/>
    </g>
   </g>
   <g id="text_15">
    <!-- $y=x$ -->
    <g style="fill: #808080" transform="translate(167.612482 491.686) scale(0.12 -0.12)">
     <defs>
      <path id="DejaVuSans-Oblique-79" d="M 1588 -325 
Q 1188 -997 936 -1164 
Q 684 -1331 294 -1331 
L -159 -1331 
L -63 -850 
L 269 -850 
Q 509 -850 678 -719 
Q 847 -588 1056 -206 
L 1234 128 
L 459 3500 
L 1069 3500 
L 1650 819 
L 3256 3500 
L 3859 3500 
L 1588 -325 
z
" transform="scale(0.015625)"/>
      <path id="DejaVuSans-3d" d="M 678 2906 
L 4684 2906 
L 4684 2381 
L 678 2381 
L 678 2906 
z
M 678 1631 
L 4684 1631 
L 4684 1100 
L 678 1100 
L 678 1631 
z
" transform="scale(0.015625)"/>
     </defs>
     <use xlink:href="#DejaVuSans-Oblique-79" transform="translate(0 0.3125)"/>
     <use xlink:href="#DejaVuSans-3d" transform="translate(78.662109 0.3125)"/>
     <use xlink:href="#DejaVuSans-Oblique-78" transform="translate(181.933594 0.3125)"/>
    </g>
   </g>
   <g id="text_16">
    <!-- $\tan(x)$ -->
    <g style="fill: #800080" transform="translate(236.686241 463.596843) scale(0.12 -0.12)">
     <defs>
      <path id="DejaVuSans-74" d="M 1172 4494 
L 1172 3500 
L 2356 3500 
L 2356 3053 
L 1172 3053 
L 1172 1153 
Q 1172 725 1289 603 
Q 1406 481 1766 481 
L 2356 481 
L 2356 0 
L 1766 0 
Q 1100 0 847 248 
Q 594 497 594 1153 
L 594 3053 
L 172 3053 
L 172 3500 
L 594 3500 
L 594 4494 
L 1172 4494 
z
" transform="scale(0.015625)"/>
      <path id="DejaVuSans-61" d="M 2194 1759 
Q 1497 1759 1228 1600 
Q 959 1441 959 1056 
Q 959 750 1161 570 
Q 1363 391 1709 391 
Q 2188 391 2477 730 
Q 2766 1069 2766 1631 
L 2766 1759 
L 2194 1759 
z
M 3341 1997 
L 3341 0 
L 2766 0 
L 2766 531 
Q 2569 213 2275 61 
Q 1981 -91 1556 -91 
Q 1019 -91 701 211 
Q 384 513 384 1019 
Q 384 1609 779 1909 
Q 1175 2209 1959 2209 
L 2766 2209 
L 2766 2266 
Q 2766 2663 2505 2880 
Q 2244 3097 1772 3097 
Q 1472 3097 1187 3025 
Q 903 2953 641 2809 
L 641 3341 
Q 956 3463 1253 3523 
Q 1550 3584 1831 3584 
Q 2591 3584 2966 3190 
Q 3341 2797 3341 1997 
z
" transform="scale(0.015625)"/>
     </defs>
     <use xlink:href="#DejaVuSans-74" transform="translate(0 0.125)"/>
     <use xlink:href="#DejaVuSans-61" transform="translate(39.208984 0.125)"/>
     <use xlink:href="#DejaVuSans-6e" transform="translate(100.488281 0.125)"/>
     <use xlink:href="#DejaVuSans-28" transform="translate(163.867188 0.125)"/>
     <use xlink:href="#DejaVuSans-Oblique-78" transform="translate(202.880859 0.125)"/>
     <use xlink:href="#DejaVuSans-29" transform="translate(262.060547 0.125)"/>
    </g>
   </g>
   <g id="text_17">
    <!-- $\arcsin(x)$ -->
    <g style="fill: #a52a2a" transform="translate(202.246241 449.526044) scale(0.12 -0.12)">
     <defs>
      <path id="DejaVuSans-72" d="M 2631 2963 
Q 2534 3019 2420 3045 
Q 2306 3072 2169 3072 
Q 1681 3072 1420 2755 
Q 1159 2438 1159 1844 
L 1159 0 
L 581 0 
L 581 3500 
L 1159 3500 
L 1159 2956 
Q 1341 3275 1631 3429 
Q 1922 3584 2338 3584 
Q 2397 3584 2469 3576 
Q 2541 3569 2628 3553 
L 2631 2963 
z
" transform="scale(0.015625)"/>
     </defs>
     <use xlink:href="#DejaVuSans-61" transform="translate(0 0.015625)"/>
     <use xlink:href="#DejaVuSans-72" transform="translate(61.279297 0.015625)"/>
     <use xlink:href="#DejaVuSans-63" transform="translate(102.392578 0.015625)"/>
     <use xlink:href="#DejaVuSans-73" transform="translate(157.373047 0.015625)"/>
     <use xlink:href="#DejaVuSans-69" transform="translate(209.472656 0.015625)"/>
     <use xlink:href="#DejaVuSans-6e" transform="translate(237.255859 0.015625)"/>
     <use xlink:href="#DejaVuSans-28" transform="translate(300.634766 0.015625)"/>
     <use xlink:href="#DejaVuSans-Oblique-78" transform="translate(339.648438 0.015625)"/>
     <use xlink:href="#DejaVuSans-29" transform="translate(398.828125 0.015625)"/>
    </g>
   </g>
   <g id="text_18">
    <!-- $\arctan(x)$ -->
    <g style="fill: #ffc0cb" transform="translate(571.907245 143.178968) scale(0.12 -0.12)">
     <use xlink:href="#DejaVuSans-61" transform="translate(0 0.125)"/>
     <use xlink:href="#DejaVuSans-72" transform="translate(61.279297 0.125)"/>
     <use xlink:href="#DejaVuSans-63" transform="translate(102.392578 0.125)"/>
     <use xlink:href="#DejaVuSans-74" transform="translate(157.373047 0.125)"/>
     <use xlink:href="#DejaVuSans-61" transform="translate(196.582031 0.125)"/>
     <use xlink:href="#DejaVuSans-6e" transform="translate(257.861328 0.125)"/>
     <use xlink:href="#DejaVuSans-28" transform="translate(321.240234 0.125)"/>
     <use xlink:href="#DejaVuSans-Oblique-78" transform="translate(360.253906 0.125)"/>
     <use xlink:href="#DejaVuSans-29" transform="translate(419.433594 0.125)"/>
    </g>
   </g>
   <g id="text_19">
    <!-- $\frac{1}{1+x}$ -->
    <g style="fill: #008080" transform="translate(119.171505 377.394308) scale(0.12 -0.12)">
     <use xlink:href="#DejaVuSans-31" transform="translate(64 43.965625) scale(0.7)"/>
     <use xlink:href="#DejaVuSans-31" transform="translate(0 -38.31875) scale(0.7)"/>
     <use xlink:href="#DejaVuSans-2b" transform="translate(58.173828 -38.31875) scale(0.7)"/>
     <use xlink:href="#DejaVuSans-Oblique-78" transform="translate(130.463867 -38.31875) scale(0.7)"/>
     <path d="M 0 18.965625 
L 0 25.215625 
L 171.889648 25.215625 
L 171.889648 18.965625 
L 0 18.965625 
z
"/>
    </g>
   </g>
   <g id="text_20">
    <!-- $\frac{1}{1-x}$ -->
    <g style="fill: #ffd700" transform="translate(506.699323 461.59) scale(0.12 -0.12)">
     <use xlink:href="#DejaVuSans-31" transform="translate(64 43.965625) scale(0.7)"/>
     <use xlink:href="#DejaVuSans-31" transform="translate(0 -38.31875) scale(0.7)"/>
     <use xlink:href="#DejaVuSans-2212" transform="translate(58.173828 -38.31875) scale(0.7)"/>
     <use xlink:href="#DejaVuSans-Oblique-78" transform="translate(130.463867 -38.31875) scale(0.7)"/>
     <path d="M 0 18.965625 
L 0 25.215625 
L 171.889648 25.215625 
L 171.889648 18.965625 
L 0 18.965625 
z
"/>
    </g>
   </g>
   <g id="text_21">
    <!-- 常见函数曲线 (弧度坐标轴) -->
    <g transform="translate(246.2875 19.99) scale(0.16 -0.16)">
     <defs>
      <path id="MicrosoftYaHei-5e38" d="M 1213 -372 
L 725 -372 
L 725 1409 
L 2963 1409 
L 2963 1997 
L 1738 1997 
L 1738 1772 
L 1263 1772 
L 1263 3366 
L 5175 3366 
L 5175 1772 
L 4700 1772 
L 4700 1997 
L 3463 1997 
L 3463 1409 
L 5756 1409 
L 5756 341 
Q 5756 -378 5000 -378 
Q 4681 -378 4269 -372 
Q 4231 -153 4175 109 
Q 4556 72 4881 72 
Q 5269 72 5269 409 
L 5269 997 
L 3463 997 
L 3463 -853 
L 2963 -853 
L 2963 997 
L 1213 997 
L 1213 -372 
z
M 356 4216 
L 1828 4216 
Q 1409 4572 956 4903 
L 1244 5228 
Q 1713 4916 2188 4572 
L 1853 4216 
L 2956 4216 
L 2956 5309 
L 3456 5309 
L 3456 4216 
L 4488 4216 
L 4238 4528 
Q 4750 4866 5213 5247 
L 5575 4878 
Q 5128 4547 4631 4216 
L 6056 4216 
L 6056 3109 
L 5569 3109 
L 5569 3791 
L 844 3791 
L 844 3109 
L 356 3109 
L 356 4216 
z
M 4700 2966 
L 1738 2966 
L 1738 2397 
L 4700 2397 
L 4700 2966 
z
" transform="scale(0.015625)"/>
      <path id="MicrosoftYaHei-89c1" d="M 2919 4128 
L 3438 4128 
L 3438 3491 
Q 3438 2644 3313 2009 
L 3781 2009 
L 3781 178 
Q 3781 -216 4213 -216 
L 5206 -216 
Q 5625 -216 5688 191 
Q 5750 584 5788 1159 
Q 6038 1059 6300 978 
Q 6244 403 6163 -16 
Q 6050 -672 5275 -672 
L 4088 -672 
Q 3269 -672 3269 91 
L 3269 1797 
Q 3122 1181 2844 784 
Q 2250 -128 494 -866 
Q 356 -678 131 -416 
Q 1781 234 2363 1066 
Q 2919 1797 2919 3497 
L 2919 4128 
z
M 913 5072 
L 5513 5072 
L 5513 1178 
L 5000 1178 
L 5000 4609 
L 1425 4609 
L 1425 1141 
L 913 1141 
L 913 5072 
z
" transform="scale(0.015625)"/>
      <path id="MicrosoftYaHei-51fd" d="M 5431 -816 
L 5431 -516 
L 469 -516 
L 469 3722 
L 969 3722 
L 969 -53 
L 5431 -53 
L 5431 3722 
L 5931 3722 
L 5931 -816 
L 5431 -816 
z
M 3069 3753 
L 4550 4541 
L 1013 4541 
L 1013 4997 
L 5294 4997 
L 5294 4478 
L 3544 3509 
L 3544 1047 
Q 3544 266 2775 266 
Q 2463 266 1994 278 
Q 1975 491 1919 784 
Q 2319 734 2675 734 
Q 3069 734 3069 1109 
L 3069 3753 
z
M 2681 2372 
L 2938 1978 
Q 2169 1541 1300 1016 
L 1019 1447 
Q 1794 1822 2681 2372 
z
M 3638 1997 
L 3938 2359 
Q 4631 1928 5375 1409 
L 5038 991 
Q 4350 1528 3638 1997 
z
M 1219 3484 
L 1525 3822 
Q 2150 3391 2731 2934 
L 2394 2547 
Q 1788 3066 1219 3484 
z
M 4894 3753 
L 5256 3416 
Q 4763 2997 4150 2522 
L 3825 2878 
Q 4375 3284 4894 3753 
z
" transform="scale(0.015625)"/>
      <path id="MicrosoftYaHei-6570" d="M 4175 5303 
L 4675 5228 
Q 4544 4622 4369 4097 
L 6281 4097 
L 6281 3672 
L 5888 3672 
Q 5731 1834 5088 753 
Q 5594 66 6375 -372 
Q 6175 -647 6038 -866 
Q 5275 -372 4769 309 
Q 4194 -403 3400 -928 
Q 3263 -747 3044 -534 
Q 3919 41 4463 772 
Q 3956 1647 3794 2791 
Q 3663 2559 3519 2359 
Q 3394 2541 3206 2759 
Q 3931 3803 4175 5303 
z
M 150 1697 
L 1100 1697 
Q 1238 1934 1369 2184 
L 1819 2041 
Q 1719 1866 1619 1697 
L 3150 1697 
L 3150 1291 
Q 2913 678 2431 216 
Q 2775 53 3131 -109 
L 2856 -541 
Q 2469 -322 2050 -103 
Q 1344 -609 269 -903 
Q 169 -703 56 -466 
Q 969 -259 1600 128 
Q 1063 403 475 691 
Q 675 978 863 1284 
L 150 1284 
L 150 1697 
z
M 219 3847 
L 1656 3847 
L 1656 5247 
L 2119 5247 
L 2119 3847 
L 3319 3847 
L 3319 3434 
L 2119 3434 
L 2119 3053 
L 2306 3266 
Q 2888 2841 3281 2516 
L 2981 2166 
Q 2638 2491 2119 2897 
L 2119 2184 
L 1656 2184 
L 1656 3059 
Q 1088 2466 331 2016 
Q 213 2197 63 2397 
Q 850 2822 1506 3434 
L 219 3434 
L 219 3847 
z
M 5388 3672 
L 4219 3672 
Q 4188 3591 4150 3516 
Q 4263 2191 4775 1247 
Q 5275 2159 5388 3672 
z
M 1088 834 
Q 1531 634 2000 416 
Q 2431 784 2675 1284 
L 1375 1284 
Q 1231 1053 1088 834 
z
M 3038 5091 
L 3425 4834 
Q 3081 4384 2738 4003 
Q 2594 4128 2400 4266 
Q 2725 4647 3038 5091 
z
M 381 4816 
L 738 5059 
Q 1019 4716 1319 4322 
L 931 4047 
Q 656 4453 381 4816 
z
" transform="scale(0.015625)"/>
      <path id="MicrosoftYaHei-66f2" d="M 2163 5322 
L 2625 5322 
L 2625 4291 
L 3775 4291 
L 3775 5328 
L 4238 5328 
L 4238 4291 
L 5850 4291 
L 5850 -822 
L 5388 -822 
L 5388 -409 
L 1013 -409 
L 1013 -822 
L 550 -822 
L 550 4291 
L 2163 4291 
L 2163 5322 
z
M 1013 41 
L 2163 41 
L 2163 1753 
L 1013 1753 
L 1013 41 
z
M 4238 41 
L 5388 41 
L 5388 1753 
L 4238 1753 
L 4238 41 
z
M 2625 41 
L 3775 41 
L 3775 1753 
L 2625 1753 
L 2625 41 
z
M 1013 2203 
L 2163 2203 
L 2163 3841 
L 1013 3841 
L 1013 2203 
z
M 5388 3841 
L 4238 3841 
L 4238 2203 
L 5388 2203 
L 5388 3841 
z
M 2625 2203 
L 3775 2203 
L 3775 3841 
L 2625 3841 
L 2625 2203 
z
" transform="scale(0.015625)"/>
      <path id="MicrosoftYaHei-7ebf" d="M 1969 -347 
Q 3144 75 4003 631 
Q 3781 1197 3653 1972 
L 2319 1784 
L 2244 2234 
L 3591 2422 
Q 3538 2859 3513 3356 
L 2381 3228 
L 2306 3678 
L 3488 3809 
Q 3453 4459 3425 5303 
L 3938 5303 
Q 3953 4497 3978 3866 
L 6069 4103 
L 6125 3659 
L 3997 3413 
Q 4019 2919 4069 2488 
L 6225 2791 
L 6281 2347 
L 4128 2041 
Q 4234 1394 4416 916 
Q 5078 1416 5519 2009 
L 5925 1703 
Q 5363 1025 4619 475 
Q 4859 44 5194 -184 
Q 5606 -428 5725 66 
Q 5806 466 5856 953 
Q 6144 828 6338 772 
Q 6231 97 6125 -247 
Q 5944 -778 5506 -778 
Q 5050 -778 4663 -403 
Q 4409 -163 4209 194 
Q 3350 -363 2281 -772 
Q 2169 -597 1969 -347 
z
M 900 1541 
Q 1456 1622 2213 1753 
Q 2175 1522 2156 1272 
Q 1113 1109 325 978 
L 225 1447 
Q 659 1913 1178 2775 
Q 672 2747 225 2703 
L 106 3128 
Q 688 3922 1300 5353 
L 1775 5166 
Q 1131 3897 669 3166 
Q 1041 3178 1422 3194 
Q 1638 3578 1869 4028 
L 2331 3797 
Q 1569 2478 900 1541 
z
M 106 97 
Q 1206 334 2331 616 
Q 2313 366 2313 141 
Q 1269 -103 244 -378 
L 106 97 
z
M 4463 4972 
L 4731 5284 
Q 5175 5003 5681 4609 
L 5381 4247 
Q 4863 4691 4463 4972 
z
" transform="scale(0.015625)"/>
      <path id="MicrosoftYaHei-20" transform="scale(0.015625)"/>
      <path id="MicrosoftYaHei-28" d="M 1531 -1100 
Q 478 100 478 1847 
Q 478 3594 1531 4841 
L 2072 4841 
Q 1016 3544 1016 1853 
Q 1016 166 2066 -1100 
L 1531 -1100 
z
" transform="scale(0.015625)"/>
      <path id="MicrosoftYaHei-5f27" d="M 4388 1178 
L 4781 1316 
Q 5056 453 5306 -416 
L 4863 -566 
Q 4803 -306 4731 -22 
Q 4494 -144 4163 -334 
Q 3994 -447 3869 -559 
L 3575 -141 
Q 3775 -16 3775 316 
L 3775 4434 
Q 3431 4416 3094 4403 
L 3094 1903 
Q 3094 122 2438 -822 
Q 2263 -616 2063 -441 
Q 2656 359 2656 1941 
L 2656 4828 
Q 4544 4847 6013 5109 
L 6175 4641 
Q 5788 4597 5403 4559 
Q 5359 966 6363 -428 
Q 6144 -578 5919 -766 
Q 4944 841 4966 4522 
Q 4588 4488 4213 4463 
L 4213 178 
Q 4394 266 4622 384 
Q 4516 759 4388 1178 
z
M 413 3441 
L 1719 3441 
L 1719 4491 
L 225 4491 
L 225 4916 
L 2181 4916 
L 2181 2747 
L 1719 2747 
L 1719 3016 
L 806 3016 
L 688 2003 
L 2056 2003 
Q 2013 934 1950 209 
Q 1881 -634 1125 -634 
Q 819 -634 400 -628 
Q 363 -397 300 -128 
Q 644 -159 1019 -159 
Q 1450 -159 1488 278 
Q 1538 797 1575 1578 
L 200 1578 
L 413 3441 
z
" transform="scale(0.015625)"/>
      <path id="MicrosoftYaHei-5ea6" d="M 1550 1216 
L 1550 1628 
L 5469 1628 
L 5469 1222 
Q 4903 613 4147 163 
Q 5050 -200 6263 -309 
L 6019 -797 
Q 4625 -603 3644 -109 
Q 2600 -619 1250 -866 
Q 1150 -666 994 -416 
Q 2231 -222 3166 166 
Q 2497 600 2066 1216 
L 1550 1216 
z
M 1363 3541 
L 2294 3541 
L 2294 4066 
L 2769 4066 
L 2769 3541 
L 4538 3541 
L 4538 4072 
L 5013 4072 
L 5013 3541 
L 6150 3541 
L 6150 3128 
L 5013 3128 
L 5013 1928 
L 4538 1928 
L 4538 2147 
L 2769 2147 
L 2769 1922 
L 2294 1922 
L 2294 3128 
L 1363 3128 
L 1363 3541 
z
M 3025 5172 
L 3481 5391 
Q 3694 5056 3909 4634 
L 6213 4634 
L 6213 4197 
L 1225 4197 
L 1225 2316 
Q 1225 178 394 -872 
Q 238 -666 38 -447 
Q 725 397 738 2347 
L 738 4634 
L 3331 4634 
Q 3188 4909 3025 5172 
z
M 2769 2547 
L 4538 2547 
L 4538 3128 
L 2769 3128 
L 2769 2547 
z
M 4819 1216 
L 2588 1216 
Q 3031 728 3656 391 
Q 4334 741 4819 1216 
z
" transform="scale(0.015625)"/>
      <path id="MicrosoftYaHei-5750" d="M 150 -53 
L 2950 -53 
L 2950 1134 
L 850 1134 
L 850 1609 
L 2950 1609 
L 2950 5291 
L 3450 5291 
L 3450 1609 
L 5550 1609 
L 5550 1134 
L 3450 1134 
L 3450 -53 
L 6275 -53 
L 6275 -528 
L 150 -528 
L 150 -53 
z
M 100 1934 
Q 1106 3084 1350 4772 
L 1850 4684 
Q 1763 4209 1631 3778 
Q 2088 3228 2694 2403 
L 2275 2053 
Q 1813 2784 1456 3278 
Q 1088 2322 475 1572 
Q 300 1778 100 1934 
z
M 3650 2266 
Q 4531 3253 4894 4772 
L 5375 4634 
Q 5219 4072 5000 3572 
Q 5663 2916 6269 2259 
L 5869 1891 
Q 5269 2647 4806 3141 
Q 4425 2422 3988 1897 
Q 3831 2084 3650 2266 
z
" transform="scale(0.015625)"/>
      <path id="MicrosoftYaHei-6807" d="M 75 1409 
Q 769 2478 1025 3647 
L 119 3647 
L 119 4072 
L 1069 4072 
L 1069 5297 
L 1506 5297 
L 1506 4072 
L 2356 4072 
L 2356 3647 
L 1506 3647 
L 1506 2541 
L 1775 2822 
Q 2175 2478 2481 2159 
L 2150 1816 
Q 1850 2156 1506 2503 
L 1506 -797 
L 1069 -797 
L 1069 2588 
Q 738 1513 281 859 
Q 194 1128 75 1409 
z
M 2350 3097 
L 6250 3097 
L 6250 2659 
L 4525 2659 
L 4525 47 
Q 4525 -734 3806 -734 
Q 3469 -741 2975 -728 
Q 2944 -503 2888 -209 
Q 3319 -259 3675 -259 
Q 4050 -259 4050 203 
L 4050 2659 
L 2350 2659 
L 2350 3097 
z
M 2638 4928 
L 5963 4928 
L 5963 4491 
L 2638 4491 
L 2638 4928 
z
M 4938 1853 
L 5381 2066 
Q 5975 928 6369 72 
L 5869 -147 
Q 5463 822 4938 1853 
z
M 2931 2066 
L 3400 1878 
Q 2888 734 2381 -153 
Q 2188 -41 1925 66 
Q 2425 872 2931 2066 
z
" transform="scale(0.015625)"/>
      <path id="MicrosoftYaHei-8f74" d="M 2775 4078 
L 4163 4078 
L 4163 5253 
L 4613 5253 
L 4613 4078 
L 6000 4078 
L 6000 -784 
L 5538 -784 
L 5538 -384 
L 3238 -384 
L 3238 -784 
L 2775 -784 
L 2775 4078 
z
M 706 2516 
L 1369 2516 
L 1369 3622 
L 1819 3622 
L 1819 2516 
L 2400 2516 
L 2400 2091 
L 1819 2091 
L 1819 1000 
Q 2144 1044 2488 1091 
Q 2456 847 2444 647 
Q 2141 613 1819 569 
L 1819 -841 
L 1369 -841 
L 1369 509 
Q 784 431 131 334 
L 81 803 
Q 691 863 1369 944 
L 1369 2091 
L 244 2091 
L 244 2516 
Q 538 3275 769 3941 
L 156 3941 
L 156 4366 
L 913 4366 
Q 1084 4888 1213 5347 
L 1688 5247 
Q 1547 4809 1391 4366 
L 2488 4366 
L 2488 3941 
L 1244 3941 
Q 991 3234 706 2516 
z
M 4613 53 
L 5538 53 
L 5538 1653 
L 4613 1653 
L 4613 53 
z
M 3238 53 
L 4163 53 
L 4163 1653 
L 3238 1653 
L 3238 53 
z
M 5538 3641 
L 4613 3641 
L 4613 2078 
L 5538 2078 
L 5538 3641 
z
M 3238 2078 
L 4163 2078 
L 4163 3641 
L 3238 3641 
L 3238 2078 
z
" transform="scale(0.015625)"/>
      <path id="MicrosoftYaHei-29" d="M 78 -1100 
Q 1131 163 1131 1853 
Q 1131 3547 72 4841 
L 616 4841 
Q 1672 3603 1672 1847 
Q 1672 91 616 -1100 
L 78 -1100 
z
" transform="scale(0.015625)"/>
     </defs>
     <use xlink:href="#MicrosoftYaHei-5e38"/>
     <use xlink:href="#MicrosoftYaHei-89c1" x="100"/>
     <use xlink:href="#MicrosoftYaHei-51fd" x="200"/>
     <use xlink:href="#MicrosoftYaHei-6570" x="300"/>
     <use xlink:href="#MicrosoftYaHei-66f2" x="400"/>
     <use xlink:href="#MicrosoftYaHei-7ebf" x="500"/>
     <use xlink:href="#MicrosoftYaHei-20" x="600"/>
     <use xlink:href="#MicrosoftYaHei-28" x="629.589844"/>
     <use xlink:href="#MicrosoftYaHei-5f27" x="662.988281"/>
     <use xlink:href="#MicrosoftYaHei-5ea6" x="762.988281"/>
     <use xlink:href="#MicrosoftYaHei-5750" x="862.988281"/>
     <use xlink:href="#MicrosoftYaHei-6807" x="962.988281"/>
     <use xlink:href="#MicrosoftYaHei-8f74" x="1062.988281"/>
     <use xlink:href="#MicrosoftYaHei-29" x="1162.988281"/>
    </g>
   </g>
  </g>
 </g>
 <defs>
  <clipPath id="p230f0b8200">
   <rect x="7.2" y="25.99" width="669.6" height="554.4"/>
  </clipPath>
 </defs>
</svg>
