<?xml version="1.0" encoding="utf-8" standalone="no"?>
<!DOCTYPE svg PUBLIC "-//W3C//DTD SVG 1.1//EN"
  "http://www.w3.org/Graphics/SVG/1.1/DTD/svg11.dtd">
<svg xmlns:xlink="http://www.w3.org/1999/xlink" width="788.282088pt" height="587.59pt" viewBox="0 0 788.282088 587.59" xmlns="http://www.w3.org/2000/svg" version="1.1">
 <metadata>
  <rdf:RDF xmlns:dc="http://purl.org/dc/elements/1.1/" xmlns:cc="http://creativecommons.org/ns#" xmlns:rdf="http://www.w3.org/1999/02/22-rdf-syntax-ns#">
   <cc:Work>
    <dc:type rdf:resource="http://purl.org/dc/dcmitype/StillImage"/>
    <dc:date>2025-07-19T17:39:24.720600</dc:date>
    <dc:format>image/svg+xml</dc:format>
    <dc:creator>
     <cc:Agent>
      <dc:title>Matplotlib v3.7.5, https://matplotlib.org/</dc:title>
     </cc:Agent>
    </dc:creator>
   </cc:Work>
  </rdf:RDF>
 </metadata>
 <defs>
  <style type="text/css">*{stroke-linejoin: round; stroke-linecap: butt}</style>
 </defs>
 <g id="figure_1">
  <g id="patch_1">
   <path d="M 0 587.59 
L 788.282088 587.59 
L 788.282088 0 
L 0 0 
z
" style="fill: #ffffff"/>
  </g>
  <g id="axes_1">
   <g id="patch_2">
    <path d="M 7.2 580.39 
L 676.8 580.39 
L 676.8 25.99 
L 7.2 25.99 
z
" style="fill: #ffffff"/>
   </g>
   <g id="matplotlib.axis_1">
    <g id="xtick_1">
     <g id="line2d_1">
      <path d="M 74.16 580.39 
L 74.16 25.99 
" clip-path="url(#p74677bb5c0)" style="fill: none; stroke-dasharray: 2.96,1.28; stroke-dashoffset: 0; stroke: #b0b0b0; stroke-opacity: 0.5; stroke-width: 0.8"/>
     </g>
     <g id="line2d_2">
      <defs>
       <path id="m02046813d7" d="M 0 0 
L 0 3.5 
" style="stroke: #000000; stroke-width: 0.8"/>
      </defs>
      <g>
       <use xlink:href="#m02046813d7" x="74.16" y="303.19" style="stroke: #000000; stroke-width: 0.8"/>
      </g>
     </g>
     <g id="text_1">
      <!-- -2 -->
      <g transform="translate(69.064688 318.18375) scale(0.1 -0.1)">
       <defs>
        <path id="MicrosoftYaHei-2d" d="M 2328 1681 
L 488 1681 
L 488 2153 
L 2328 2153 
L 2328 1681 
z
" transform="scale(0.015625)"/>
        <path id="MicrosoftYaHei-32" d="M 2666 3572 
Q 2666 3963 2419 4186 
Q 2172 4409 1747 4409 
Q 1447 4409 1140 4256 
Q 834 4103 569 3819 
L 569 4413 
Q 806 4659 1107 4790 
Q 1409 4922 1816 4922 
Q 2472 4922 2872 4570 
Q 3272 4219 3272 3619 
Q 3272 3084 3026 2693 
Q 2781 2303 2188 1894 
Q 1581 1475 1376 1294 
Q 1172 1113 1090 947 
Q 1009 781 1009 544 
L 3416 544 
L 3416 0 
L 372 0 
L 372 241 
Q 372 659 486 951 
Q 600 1244 862 1520 
Q 1125 1797 1681 2184 
Q 2250 2584 2458 2886 
Q 2666 3188 2666 3572 
z
" transform="scale(0.015625)"/>
       </defs>
       <use xlink:href="#MicrosoftYaHei-2d"/>
       <use xlink:href="#MicrosoftYaHei-32" x="43.261719"/>
      </g>
     </g>
    </g>
    <g id="xtick_2">
     <g id="line2d_3">
      <path d="M 208.08 580.39 
L 208.08 25.99 
" clip-path="url(#p74677bb5c0)" style="fill: none; stroke-dasharray: 2.96,1.28; stroke-dashoffset: 0; stroke: #b0b0b0; stroke-opacity: 0.5; stroke-width: 0.8"/>
     </g>
     <g id="line2d_4">
      <g>
       <use xlink:href="#m02046813d7" x="208.08" y="303.19" style="stroke: #000000; stroke-width: 0.8"/>
      </g>
     </g>
     <g id="text_2">
      <!-- -1 -->
      <g transform="translate(202.984688 318.18375) scale(0.1 -0.1)">
       <defs>
        <path id="MicrosoftYaHei-31" d="M 1781 0 
L 1781 4141 
Q 1638 3997 1295 3819 
Q 953 3641 663 3569 
L 663 4169 
Q 1047 4275 1484 4508 
Q 1922 4741 2156 4947 
L 2388 4947 
L 2388 0 
L 1781 0 
z
" transform="scale(0.015625)"/>
       </defs>
       <use xlink:href="#MicrosoftYaHei-2d"/>
       <use xlink:href="#MicrosoftYaHei-31" x="43.261719"/>
      </g>
     </g>
    </g>
    <g id="xtick_3">
     <g id="line2d_5">
      <path d="M 342 580.39 
L 342 25.99 
" clip-path="url(#p74677bb5c0)" style="fill: none; stroke-dasharray: 2.96,1.28; stroke-dashoffset: 0; stroke: #b0b0b0; stroke-opacity: 0.5; stroke-width: 0.8"/>
     </g>
     <g id="line2d_6">
      <g>
       <use xlink:href="#m02046813d7" x="342" y="303.19" style="stroke: #000000; stroke-width: 0.8"/>
      </g>
     </g>
     <g id="text_3">
      <!-- 0 -->
      <g transform="translate(339.067969 318.18375) scale(0.1 -0.1)">
       <defs>
        <path id="MicrosoftYaHei-30" d="M 284 2325 
Q 284 3606 709 4264 
Q 1134 4922 1941 4922 
Q 3478 4922 3478 2441 
Q 3478 1216 3045 567 
Q 2613 -81 1831 -81 
Q 1094 -81 689 534 
Q 284 1150 284 2325 
z
M 909 2353 
Q 909 425 1888 425 
Q 2850 425 2850 2384 
Q 2850 4413 1906 4413 
Q 909 4413 909 2353 
z
" transform="scale(0.015625)"/>
       </defs>
       <use xlink:href="#MicrosoftYaHei-30"/>
      </g>
     </g>
    </g>
    <g id="xtick_4">
     <g id="line2d_7">
      <path d="M 475.92 580.39 
L 475.92 25.99 
" clip-path="url(#p74677bb5c0)" style="fill: none; stroke-dasharray: 2.96,1.28; stroke-dashoffset: 0; stroke: #b0b0b0; stroke-opacity: 0.5; stroke-width: 0.8"/>
     </g>
     <g id="line2d_8">
      <g>
       <use xlink:href="#m02046813d7" x="475.92" y="303.19" style="stroke: #000000; stroke-width: 0.8"/>
      </g>
     </g>
     <g id="text_4">
      <!-- 1 -->
      <g transform="translate(472.987969 318.18375) scale(0.1 -0.1)">
       <use xlink:href="#MicrosoftYaHei-31"/>
      </g>
     </g>
    </g>
    <g id="xtick_5">
     <g id="line2d_9">
      <path d="M 609.84 580.39 
L 609.84 25.99 
" clip-path="url(#p74677bb5c0)" style="fill: none; stroke-dasharray: 2.96,1.28; stroke-dashoffset: 0; stroke: #b0b0b0; stroke-opacity: 0.5; stroke-width: 0.8"/>
     </g>
     <g id="line2d_10">
      <g>
       <use xlink:href="#m02046813d7" x="609.84" y="303.19" style="stroke: #000000; stroke-width: 0.8"/>
      </g>
     </g>
     <g id="text_5">
      <!-- 2 -->
      <g transform="translate(606.907969 318.18375) scale(0.1 -0.1)">
       <use xlink:href="#MicrosoftYaHei-32"/>
      </g>
     </g>
    </g>
   </g>
   <g id="matplotlib.axis_2">
    <g id="ytick_1">
     <g id="line2d_11">
      <path d="M 7.2 524.95 
L 676.8 524.95 
" clip-path="url(#p74677bb5c0)" style="fill: none; stroke-dasharray: 2.96,1.28; stroke-dashoffset: 0; stroke: #b0b0b0; stroke-opacity: 0.5; stroke-width: 0.8"/>
     </g>
     <g id="line2d_12">
      <defs>
       <path id="mddc93216d7" d="M 0 0 
L -3.5 0 
" style="stroke: #000000; stroke-width: 0.8"/>
      </defs>
      <g>
       <use xlink:href="#mddc93216d7" x="342" y="524.95" style="stroke: #000000; stroke-width: 0.8"/>
      </g>
     </g>
     <g id="text_6">
      <!-- -2 -->
      <g transform="translate(324.809375 528.946875) scale(0.1 -0.1)">
       <use xlink:href="#MicrosoftYaHei-2d"/>
       <use xlink:href="#MicrosoftYaHei-32" x="43.261719"/>
      </g>
     </g>
    </g>
    <g id="ytick_2">
     <g id="line2d_13">
      <path d="M 7.2 414.07 
L 676.8 414.07 
" clip-path="url(#p74677bb5c0)" style="fill: none; stroke-dasharray: 2.96,1.28; stroke-dashoffset: 0; stroke: #b0b0b0; stroke-opacity: 0.5; stroke-width: 0.8"/>
     </g>
     <g id="line2d_14">
      <g>
       <use xlink:href="#mddc93216d7" x="342" y="414.07" style="stroke: #000000; stroke-width: 0.8"/>
      </g>
     </g>
     <g id="text_7">
      <!-- -1 -->
      <g transform="translate(324.809375 418.066875) scale(0.1 -0.1)">
       <use xlink:href="#MicrosoftYaHei-2d"/>
       <use xlink:href="#MicrosoftYaHei-31" x="43.261719"/>
      </g>
     </g>
    </g>
    <g id="ytick_3">
     <g id="line2d_15">
      <path d="M 7.2 303.19 
L 676.8 303.19 
" clip-path="url(#p74677bb5c0)" style="fill: none; stroke-dasharray: 2.96,1.28; stroke-dashoffset: 0; stroke: #b0b0b0; stroke-opacity: 0.5; stroke-width: 0.8"/>
     </g>
     <g id="line2d_16">
      <g>
       <use xlink:href="#mddc93216d7" x="342" y="303.19" style="stroke: #000000; stroke-width: 0.8"/>
      </g>
     </g>
     <g id="text_8">
      <!-- 0 -->
      <g transform="translate(329.135938 307.186875) scale(0.1 -0.1)">
       <use xlink:href="#MicrosoftYaHei-30"/>
      </g>
     </g>
    </g>
    <g id="ytick_4">
     <g id="line2d_17">
      <path d="M 7.2 192.31 
L 676.8 192.31 
" clip-path="url(#p74677bb5c0)" style="fill: none; stroke-dasharray: 2.96,1.28; stroke-dashoffset: 0; stroke: #b0b0b0; stroke-opacity: 0.5; stroke-width: 0.8"/>
     </g>
     <g id="line2d_18">
      <g>
       <use xlink:href="#mddc93216d7" x="342" y="192.31" style="stroke: #000000; stroke-width: 0.8"/>
      </g>
     </g>
     <g id="text_9">
      <!-- 1 -->
      <g transform="translate(329.135938 196.306875) scale(0.1 -0.1)">
       <use xlink:href="#MicrosoftYaHei-31"/>
      </g>
     </g>
    </g>
    <g id="ytick_5">
     <g id="line2d_19">
      <path d="M 7.2 81.43 
L 676.8 81.43 
" clip-path="url(#p74677bb5c0)" style="fill: none; stroke-dasharray: 2.96,1.28; stroke-dashoffset: 0; stroke: #b0b0b0; stroke-opacity: 0.5; stroke-width: 0.8"/>
     </g>
     <g id="line2d_20">
      <g>
       <use xlink:href="#mddc93216d7" x="342" y="81.43" style="stroke: #000000; stroke-width: 0.8"/>
      </g>
     </g>
     <g id="text_10">
      <!-- 2 -->
      <g transform="translate(329.135938 85.426875) scale(0.1 -0.1)">
       <use xlink:href="#MicrosoftYaHei-32"/>
      </g>
     </g>
    </g>
   </g>
   <g id="line2d_21">
    <path d="M 7.2 294.088415 
L 27.308108 292.613879 
L 46.075676 291.022861 
L 63.502703 289.331913 
L 80.259459 287.484765 
L 95.675676 285.568686 
L 110.421622 283.517548 
L 124.497297 281.337302 
L 137.902703 279.036616 
L 150.637838 276.626991 
L 162.702703 274.12282 
L 174.097297 271.541373 
L 185.491892 268.730667 
L 196.216216 265.857661 
L 206.27027 262.947042 
L 216.324324 259.809497 
L 225.708108 256.660796 
L 235.091892 253.283551 
L 244.475676 249.661174 
L 253.189189 246.062514 
L 261.902703 242.221921 
L 270.616216 238.123131 
L 278.659459 234.09547 
L 286.702703 229.818497 
L 294.745946 225.276777 
L 302.118919 220.866983 
L 309.491892 216.207601 
L 316.864865 211.284503 
L 324.237838 206.082763 
L 331.610811 200.586612 
L 338.313514 195.320625 
L 345.016216 189.784368 
L 351.718919 183.963969 
L 358.421622 177.844847 
L 365.124324 171.411668 
L 371.827027 164.648315 
L 378.52973 157.537841 
L 384.562162 150.826921 
L 390.594595 143.806795 
L 396.627027 136.463217 
L 402.659459 128.781284 
L 408.691892 120.745406 
L 414.724324 112.339275 
L 420.756757 103.545832 
L 426.789189 94.347231 
L 432.821622 84.724804 
L 438.854054 74.659025 
L 444.886486 64.129465 
L 450.918919 53.114756 
L 456.951351 41.592544 
L 462.983784 29.539447 
L 469.016216 16.931003 
L 475.048649 3.741626 
L 477.152395 -1 
L 477.152395 -1 
" clip-path="url(#p74677bb5c0)" style="fill: none; stroke: #0000ff; stroke-width: 1.5; stroke-linecap: square"/>
   </g>
   <g id="line2d_22">
    <path d="M 7.2 369.548591 
L 15.243243 374.760919 
L 23.286486 379.715153 
L 31.32973 384.393428 
L 38.702703 388.424996 
L 46.075676 392.198278 
L 52.778378 395.394763 
L 59.481081 398.360323 
L 66.183784 401.087531 
L 72.886486 403.569555 
L 79.589189 405.800181 
L 85.621622 407.588167 
L 91.654054 409.16436 
L 97.686486 410.52556 
L 103.718919 411.669008 
L 109.751351 412.592383 
L 115.783784 413.293812 
L 121.816216 413.771872 
L 127.848649 414.025593 
L 133.881081 414.05446 
L 139.913514 413.858416 
L 145.945946 413.437856 
L 151.978378 412.793636 
L 158.010811 411.927061 
L 164.043243 410.83989 
L 170.075676 409.534328 
L 176.108108 408.013024 
L 182.140541 406.279064 
L 188.843243 404.107324 
L 195.545946 401.682838 
L 202.248649 399.011678 
L 208.951351 396.100534 
L 215.654054 392.956697 
L 223.027027 389.23913 
L 230.4 385.260809 
L 237.772973 381.03379 
L 245.816216 376.153927 
L 253.859459 371.010946 
L 262.572973 365.163996 
L 271.286486 359.054773 
L 280.67027 352.211978 
L 290.724324 344.614342 
L 302.118919 335.723927 
L 315.524324 324.968207 
L 332.951351 310.676193 
L 371.827027 278.69817 
L 385.232432 268.013894 
L 396.627027 259.20504 
L 406.681081 251.694777 
L 416.064865 244.946112 
L 424.778378 238.934762 
L 433.491892 233.195338 
L 441.535135 228.159789 
L 449.578378 223.394808 
L 456.951351 219.27929 
L 464.324324 215.418046 
L 471.697297 211.822776 
L 478.4 208.794338 
L 485.102703 206.002312 
L 491.805405 203.453691 
L 498.508108 201.154858 
L 505.210811 199.11157 
L 511.243243 197.495346 
L 517.275676 196.093545 
L 523.308108 194.909013 
L 529.340541 193.944151 
L 535.372973 193.200919 
L 541.405405 192.680822 
L 547.437838 192.384917 
L 553.47027 192.313803 
L 559.502703 192.467626 
L 565.535135 192.846072 
L 571.567568 193.448375 
L 577.6 194.273312 
L 583.632432 195.319209 
L 589.664865 196.583946 
L 595.697297 198.064955 
L 601.72973 199.759233 
L 608.432432 201.887699 
L 615.135135 204.269875 
L 621.837838 206.899795 
L 628.540541 209.770873 
L 635.243243 212.875917 
L 642.616216 216.552398 
L 649.989189 220.491418 
L 657.362162 224.681038 
L 665.405405 229.522404 
L 673.448649 234.629425 
L 676.8 236.831409 
L 676.8 236.831409 
" clip-path="url(#p74677bb5c0)" style="fill: none; stroke: #ff0000; stroke-width: 1.5; stroke-linecap: square"/>
   </g>
   <g id="line2d_23">
    <path d="M 7.2 392.020804 
L 14.572973 388.234682 
L 21.945946 384.190849 
L 29.318919 379.90156 
L 37.362162 374.957686 
L 45.405405 369.755009 
L 54.118919 363.848503 
L 63.502703 357.201309 
L 73.556757 349.786049 
L 84.281081 341.588152 
L 96.345946 332.074022 
L 110.421622 320.683641 
L 131.87027 302.998482 
L 158.010811 281.496085 
L 172.086486 270.208012 
L 184.151351 260.81763 
L 194.875676 252.756829 
L 204.259459 245.967074 
L 213.643243 239.458158 
L 222.356757 233.693576 
L 230.4 228.63293 
L 238.443243 223.841147 
L 245.816216 219.699642 
L 253.189189 215.811139 
L 260.562162 212.187418 
L 267.264865 209.132154 
L 273.967568 206.312456 
L 280.67027 203.735387 
L 287.372973 201.4074 
L 294.075676 199.334326 
L 300.108108 197.690814 
L 306.140541 196.261331 
L 312.172973 195.048774 
L 318.205405 194.055606 
L 324.237838 193.283839 
L 330.27027 192.735041 
L 336.302703 192.410324 
L 342.335135 192.310347 
L 348.367568 192.435313 
L 354.4 192.784969 
L 360.432432 193.358605 
L 366.464865 194.155057 
L 372.497297 195.17271 
L 378.52973 196.409499 
L 384.562162 197.862915 
L 390.594595 199.530009 
L 396.627027 201.4074 
L 403.32973 203.735387 
L 410.032432 206.312456 
L 416.735135 209.132154 
L 423.437838 212.187418 
L 430.140541 215.470597 
L 437.513514 219.335505 
L 444.886486 223.454516 
L 452.259459 227.81515 
L 460.302703 232.832227 
L 468.345946 238.103024 
L 477.059459 244.077303 
L 486.443243 250.790161 
L 496.497297 258.26699 
L 507.221622 266.520165 
L 519.286486 276.083227 
L 534.032432 288.062029 
L 559.502703 309.100184 
L 580.281081 326.139492 
L 594.356757 337.393563 
L 605.751351 346.23316 
L 616.475676 354.269415 
L 625.859459 361.034288 
L 634.572973 367.062447 
L 643.286486 372.820299 
L 651.32973 377.87423 
L 659.372973 382.65884 
L 666.745946 386.793387 
L 674.118919 390.674591 
L 676.8 392.020804 
L 676.8 392.020804 
" clip-path="url(#p74677bb5c0)" style="fill: none; stroke: #008000; stroke-width: 1.5; stroke-linecap: square"/>
   </g>
   <g id="line2d_24">
    <path d="M 218.297786 588.59 
L 219.482523 576.332673 
L 221.360624 559.426639 
L 223.238724 544.760529 
L 225.116825 531.809641 
L 226.994925 520.21446 
L 228.873026 509.717858 
L 230.751126 500.129563 
L 233.568277 487.142579 
L 236.385428 475.518479 
L 239.202579 464.998188 
L 242.019729 455.390133 
L 244.83688 446.548657 
L 247.654031 438.360425 
L 250.471182 430.735513 
L 254.227383 421.321814 
L 257.983584 412.645168 
L 261.739785 404.598494 
L 265.495986 397.096472 
L 269.252187 390.070022 
L 273.008388 383.462426 
L 276.764589 377.226545 
L 281.45984 369.894672 
L 286.155092 363.017691 
L 290.850343 356.542439 
L 295.545594 350.424558 
L 300.240846 344.626658 
L 305.875147 338.047085 
L 311.509449 331.836168 
L 317.14375 325.954776 
L 322.778052 320.369699 
L 329.351404 314.190579 
L 335.924755 308.337707 
L 342.498107 302.778354 
L 349.071459 297.48448 
L 356.583861 291.728517 
L 364.096263 286.256667 
L 371.608665 281.042198 
L 380.060118 275.454891 
L 388.51157 270.135676 
L 397.902073 264.510114 
L 407.292575 259.156241 
L 416.683078 254.049016 
L 427.012631 248.690101 
L 437.342184 243.57829 
L 448.610787 238.258064 
L 459.87939 233.181467 
L 472.087043 227.932066 
L 484.294697 222.919994 
L 497.4414 217.764298 
L 511.527154 212.494056 
L 525.612908 207.462988 
L 540.637712 202.336789 
L 556.601567 197.137992 
L 572.565421 192.172071 
L 589.468326 187.145711 
L 607.310281 182.076243 
L 626.091286 176.979085 
L 645.811341 171.867859 
L 666.470447 166.75452 
L 676.8 164.283642 
L 676.8 164.283642 
" clip-path="url(#p74677bb5c0)" style="fill: none; stroke: #ffa500; stroke-width: 1.5; stroke-linecap: square"/>
   </g>
   <g id="line2d_25">
    <path d="M 7.2 580.39 
L 676.8 25.99 
L 676.8 25.99 
" clip-path="url(#p74677bb5c0)" style="fill: none; stroke-dasharray: 5.55,2.4; stroke-dashoffset: 0; stroke: #808080; stroke-width: 1.5"/>
   </g>
   <g id="line2d_26">
    <path d="M 7.2 220.360168 
L 11.891892 214.142389 
L 16.583784 207.564434 
L 21.275676 200.576415 
L 25.297297 194.216262 
L 29.318919 187.469148 
L 33.340541 180.28529 
L 37.362162 172.606557 
L 41.383784 164.364597 
L 44.735135 157.008092 
L 48.086486 149.149499 
L 51.437838 140.724677 
L 54.789189 131.658363 
L 58.140541 121.861637 
L 61.491892 111.228655 
L 64.172973 102.035653 
L 66.854054 92.149616 
L 69.535135 81.480219 
L 72.216216 69.920864 
L 74.897297 57.344838 
L 77.578378 43.600319 
L 80.259459 28.50383 
L 82.940541 11.83152 
L 84.826976 -1 
M 181.266168 588.59 
L 183.481081 575.165564 
L 186.162162 560.317085 
L 188.843243 546.786311 
L 191.524324 534.395779 
L 194.205405 522.998418 
L 196.886486 512.471304 
L 199.567568 502.710896 
L 202.918919 491.456002 
L 206.27027 481.118764 
L 209.621622 471.579869 
L 212.972973 462.739614 
L 216.324324 454.51402 
L 219.675676 446.831839 
L 223.027027 439.632214 
L 227.048649 431.556511 
L 231.07027 424.023619 
L 235.091892 416.968283 
L 239.113514 410.334891 
L 243.805405 403.065948 
L 248.497297 396.241932 
L 253.189189 389.807888 
L 257.881081 383.716784 
L 263.243243 377.123692 
L 268.605405 370.873673 
L 274.637838 364.197079 
L 280.67027 357.843643 
L 287.372973 351.106367 
L 294.745946 344.023207 
L 302.789189 336.615533 
L 312.172973 328.302107 
L 322.897297 319.114367 
L 337.643243 306.79848 
L 363.783784 284.993189 
L 374.508108 275.733267 
L 383.221622 267.93991 
L 391.264865 260.455484 
L 398.637838 253.2848 
L 405.340541 246.451412 
L 411.372973 239.99582 
L 417.405405 233.199793 
L 422.767568 226.826722 
L 428.12973 220.092001 
L 432.821622 213.859236 
L 437.513514 207.264246 
L 442.205405 200.256798 
L 446.227027 193.87777 
L 450.248649 187.10939 
L 454.27027 179.901483 
L 458.291892 172.19544 
L 461.643243 165.343845 
L 464.994595 158.052143 
L 468.345946 150.266451 
L 471.697297 141.923995 
L 475.048649 132.951186 
L 478.4 123.261163 
L 481.751351 112.750647 
L 484.432432 103.669104 
L 487.113514 93.908696 
L 489.794595 83.381582 
L 492.475676 71.984221 
L 495.156757 59.593689 
L 497.837838 46.062915 
L 500.518919 31.214436 
L 503.2 14.832109 
L 505.548142 -1 
M 601.988457 588.59 
L 604.410811 573.963846 
L 607.091892 559.224585 
L 609.772973 545.788024 
L 612.454054 533.47932 
L 615.135135 522.153473 
L 617.816216 511.689216 
L 620.497297 501.984341 
L 623.848649 490.790204 
L 627.2 480.505672 
L 630.551351 471.012782 
L 633.902703 462.212906 
L 637.254054 454.022933 
L 640.605405 446.372322 
L 643.956757 439.200795 
L 647.978378 431.154894 
L 652 423.648166 
L 656.021622 416.615902 
L 660.043243 410.002939 
L 664.735135 402.754975 
L 669.427027 395.949316 
L 674.118919 389.531391 
L 676.8 386.019832 
L 676.8 386.019832 
" clip-path="url(#p74677bb5c0)" style="fill: none; stroke: #800080; stroke-width: 1.5; stroke-linecap: square"/>
   </g>
   <g id="line2d_27">
    <path d="M 208.08 477.359897 
L 208.751278 466.253368 
L 209.422556 461.646313 
L 210.765113 455.118857 
L 212.107669 450.09732 
L 213.450226 445.853131 
L 215.46406 440.367787 
L 217.477895 435.573604 
L 220.163008 429.897049 
L 222.84812 424.79663 
L 225.533233 420.117605 
L 228.889624 414.717445 
L 232.246015 409.703909 
L 236.273684 404.08537 
L 240.972632 397.961154 
L 245.671579 392.203537 
L 251.041805 385.980699 
L 257.083308 379.345148 
L 263.79609 372.33457 
L 271.18015 364.973675 
L 279.235489 357.275765 
L 287.962105 349.243835 
L 298.031278 340.282163 
L 310.114286 329.84602 
L 324.882406 317.40151 
L 355.761203 291.776169 
L 373.214436 277.105868 
L 385.968722 266.097837 
L 396.709173 256.52799 
L 405.435789 248.474114 
L 413.491128 240.750265 
L 420.875188 233.359245 
L 427.58797 226.314168 
L 433.629474 219.639634 
L 438.999699 213.373404 
L 443.698647 207.568406 
L 448.397594 201.3843 
L 452.425263 195.699985 
L 455.781654 190.616635 
L 459.138045 185.126187 
L 461.823158 180.352524 
L 464.508271 175.125794 
L 466.522105 170.806396 
L 468.53594 166.012213 
L 470.549774 160.526869 
L 471.892331 156.28268 
L 473.234887 151.261143 
L 473.906165 148.273312 
L 474.577444 144.733687 
L 475.248722 140.126632 
L 475.92 129.020103 
L 475.92 129.020103 
" clip-path="url(#p74677bb5c0)" style="fill: none; stroke: #a52a2a; stroke-width: 1.5; stroke-linecap: square"/>
   </g>
   <g id="line2d_28">
    <path d="M 7.2 435.16935 
L 25.967568 432.917554 
L 44.064865 430.520537 
L 60.821622 428.074487 
L 76.237838 425.60443 
L 90.983784 423.018062 
L 105.059459 420.318569 
L 117.794595 417.657805 
L 129.859459 414.923118 
L 141.924324 411.956692 
L 153.318919 408.918955 
L 164.043243 405.828299 
L 174.097297 402.70675 
L 184.151351 399.348178 
L 193.535135 395.981029 
L 202.918919 392.370883 
L 211.632432 388.78464 
L 220.345946 384.957486 
L 229.059459 380.874392 
L 237.102703 376.865811 
L 245.145946 372.61669 
L 253.189189 368.118354 
L 261.232432 363.364362 
L 269.275676 358.35128 
L 277.318919 353.079519 
L 285.362162 347.5542 
L 294.075676 341.29479 
L 303.459459 334.260308 
L 313.513514 326.429218 
L 324.908108 317.265257 
L 341.664865 303.467477 
L 363.113514 285.851633 
L 374.508108 276.7854 
L 384.562162 269.069761 
L 393.945946 262.162017 
L 402.659459 256.031972 
L 410.702703 250.632465 
L 418.745946 245.489718 
L 426.789189 240.60639 
L 434.832432 235.980863 
L 442.875676 231.608096 
L 450.918919 227.480442 
L 458.962162 223.588363 
L 467.675676 219.625232 
L 476.389189 215.911157 
L 485.102703 212.430965 
L 494.486486 208.927227 
L 503.87027 205.658626 
L 513.924324 202.397327 
L 523.978378 199.364969 
L 534.702703 196.361192 
L 546.097297 193.407209 
L 558.162162 190.520769 
L 570.897297 187.716223 
L 584.302703 185.004697 
L 598.378378 182.394368 
L 613.124324 179.890782 
L 628.540541 177.497201 
L 645.297297 175.124249 
L 663.394595 172.796185 
L 676.8 171.21065 
L 676.8 171.21065 
" clip-path="url(#p74677bb5c0)" style="fill: none; stroke: #ffc0cb; stroke-width: 1.5; stroke-linecap: square"/>
   </g>
   <g id="line2d_29">
    <path d="M 7.2 377.11 
L 15.243243 380.193212 
L 22.616216 383.254416 
L 29.989189 386.569089 
L 36.691892 389.829906 
L 42.724324 392.990665 
L 48.756757 396.390774 
L 54.789189 400.058491 
L 60.151351 403.56981 
L 65.513514 407.345261 
L 70.875676 411.415813 
L 75.567568 415.247785 
L 80.259459 419.361075 
L 84.951351 423.787844 
L 88.972973 427.859803 
L 92.994595 432.216348 
L 97.016216 436.888395 
L 101.037838 441.911503 
L 105.059459 447.326786 
L 109.081081 453.182038 
L 112.432432 458.43754 
L 115.783784 464.074706 
L 119.135135 470.136677 
L 122.486486 476.673352 
L 125.837838 483.742763 
L 129.189189 491.412804 
L 132.540541 499.763416 
L 135.221622 506.997029 
L 137.902703 514.783352 
L 140.583784 523.188252 
L 143.264865 532.28849 
L 145.945946 542.174078 
L 148.627027 552.951263 
L 151.308108 564.746364 
L 153.989189 577.710743 
L 156.050487 588.59 
M 256.897342 -1 
L 259.221622 12.83844 
L 261.902703 27.301781 
L 264.583784 40.392562 
L 267.264865 52.297316 
L 269.945946 63.170238 
L 272.627027 73.139907 
L 275.308108 82.314387 
L 277.989189 90.785168 
L 280.67027 98.630222 
L 283.351351 105.916411 
L 286.702703 114.325345 
L 290.054054 122.046713 
L 293.405405 129.161532 
L 296.756757 135.738571 
L 300.108108 141.836584 
L 303.459459 147.506065 
L 306.810811 152.790652 
L 310.832432 158.677123 
L 314.854054 164.120169 
L 318.875676 169.168076 
L 322.897297 173.862364 
L 326.918919 178.238934 
L 331.610811 182.984769 
L 336.302703 187.383288 
L 340.994595 191.471271 
L 345.686486 195.280482 
L 351.048649 199.327722 
L 356.410811 203.082345 
L 361.772973 206.57498 
L 367.805405 210.22389 
L 373.837838 213.60721 
L 379.87027 216.752918 
L 386.572973 219.998772 
L 393.275676 223.009674 
L 400.648649 226.079579 
L 408.691892 229.171209 
L 416.735135 232.024488 
L 425.448649 234.877253 
L 434.832432 237.704265 
L 444.886486 240.484583 
L 454.940541 243.038428 
L 465.664865 245.542787 
L 477.72973 248.122081 
L 490.464865 250.605561 
L 503.87027 252.988722 
L 517.945946 255.269117 
L 533.362162 257.540249 
L 550.118919 259.776667 
L 568.216216 261.958241 
L 587.654054 264.069703 
L 608.432432 266.100055 
L 631.221622 268.097613 
L 656.021622 270.04048 
L 676.8 271.51 
L 676.8 271.51 
" clip-path="url(#p74677bb5c0)" style="fill: none; stroke: #008080; stroke-width: 1.5; stroke-linecap: square"/>
   </g>
   <g id="line2d_30">
    <path d="M 7.2 271.51 
L 34.010811 269.587961 
L 58.810811 267.59009 
L 81.6 265.532642 
L 102.378378 263.437938 
L 121.816216 261.255826 
L 139.913514 258.997253 
L 156.67027 256.677667 
L 172.086486 254.317677 
L 186.162162 251.943588 
L 199.567568 249.457708 
L 211.632432 247.004801 
L 223.027027 244.473265 
L 233.751351 241.873022 
L 243.805405 239.217075 
L 253.189189 236.521857 
L 262.572973 233.589548 
L 271.286486 230.625886 
L 279.32973 227.657017 
L 286.702703 224.713826 
L 294.075676 221.531968 
L 300.778378 218.4069 
L 307.481081 215.03312 
L 313.513514 211.758617 
L 319.545946 208.231474 
L 324.908108 204.859667 
L 330.27027 201.23959 
L 335.632432 197.342776 
L 340.324324 193.680242 
L 345.016216 189.755161 
L 349.708108 185.538253 
L 354.4 180.995714 
L 358.421622 176.813366 
L 362.443243 172.334572 
L 366.464865 167.526656 
L 370.486486 162.351958 
L 374.508108 156.766841 
L 377.859459 151.762632 
L 381.210811 146.404268 
L 384.562162 140.652773 
L 387.913514 134.463237 
L 391.264865 127.783634 
L 394.616216 120.553364 
L 397.967568 112.701402 
L 400.648649 105.916411 
L 403.32973 98.630222 
L 406.010811 90.785168 
L 408.691892 82.314387 
L 411.372973 73.139907 
L 414.054054 63.170238 
L 416.735135 52.297316 
L 419.416216 40.392562 
L 422.097297 27.301781 
L 424.778378 12.83844 
L 427.102658 -1 
M 527.949513 588.59 
L 530.010811 577.710743 
L 532.691892 564.746364 
L 535.372973 552.951263 
L 538.054054 542.174078 
L 540.735135 532.28849 
L 543.416216 523.188252 
L 546.097297 514.783352 
L 548.778378 506.997029 
L 552.12973 498.034538 
L 555.481081 489.827102 
L 558.832432 482.283161 
L 562.183784 475.325385 
L 565.535135 468.88801 
L 568.886486 462.914758 
L 572.237838 457.357182 
L 575.589189 452.173349 
L 579.610811 446.395068 
L 583.632432 441.04827 
L 587.654054 436.086365 
L 591.675676 431.469236 
L 595.697297 427.162154 
L 600.389189 422.488998 
L 605.081081 418.155355 
L 609.772973 414.125523 
L 614.464865 410.368636 
L 619.827027 406.375021 
L 625.189189 402.66833 
L 630.551351 399.218713 
L 636.583784 395.613129 
L 642.616216 392.268504 
L 649.318919 388.825191 
L 656.021622 385.638173 
L 663.394595 382.395663 
L 670.767568 379.398545 
L 676.8 377.11 
L 676.8 377.11 
" clip-path="url(#p74677bb5c0)" style="fill: none; stroke: #ffd700; stroke-width: 1.5; stroke-linecap: square"/>
   </g>
   <g id="patch_3">
    <path d="M 342 580.39 
L 342 25.99 
" style="fill: none; stroke: #000000; stroke-width: 0.8; stroke-linejoin: miter; stroke-linecap: square"/>
   </g>
   <g id="patch_4">
    <path d="M 676.8 580.39 
L 676.8 25.99 
" style="fill: none"/>
   </g>
   <g id="patch_5">
    <path d="M 7.2 303.19 
L 676.8 303.19 
" style="fill: none; stroke: #000000; stroke-width: 0.8; stroke-linejoin: miter; stroke-linecap: square"/>
   </g>
   <g id="patch_6">
    <path d="M 7.2 25.99 
L 676.8 25.99 
" style="fill: none"/>
   </g>
   <g id="text_11">
    <!-- $e^x$ -->
    <g style="fill: #0000ff" transform="translate(27.324 280.985299) scale(0.12 -0.12)">
     <defs>
      <path id="DejaVuSans-Oblique-65" d="M 3078 2063 
Q 3088 2113 3092 2166 
Q 3097 2219 3097 2272 
Q 3097 2653 2873 2875 
Q 2650 3097 2266 3097 
Q 1838 3097 1509 2826 
Q 1181 2556 1013 2059 
L 3078 2063 
z
M 3578 1613 
L 903 1613 
Q 884 1494 878 1425 
Q 872 1356 872 1306 
Q 872 872 1139 634 
Q 1406 397 1894 397 
Q 2269 397 2603 481 
Q 2938 566 3225 728 
L 3116 159 
Q 2806 34 2476 -28 
Q 2147 -91 1806 -91 
Q 1078 -91 686 257 
Q 294 606 294 1247 
Q 294 1794 489 2264 
Q 684 2734 1063 3103 
Q 1306 3334 1642 3459 
Q 1978 3584 2356 3584 
Q 2950 3584 3301 3228 
Q 3653 2872 3653 2272 
Q 3653 2128 3634 1964 
Q 3616 1800 3578 1613 
z
" transform="scale(0.015625)"/>
      <path id="DejaVuSans-Oblique-78" d="M 3841 3500 
L 2234 1784 
L 3219 0 
L 2559 0 
L 1819 1388 
L 531 0 
L -166 0 
L 1556 1844 
L 641 3500 
L 1300 3500 
L 1972 2234 
L 3144 3500 
L 3841 3500 
z
" transform="scale(0.015625)"/>
     </defs>
     <use xlink:href="#DejaVuSans-Oblique-65" transform="translate(0 0.4375)"/>
     <use xlink:href="#DejaVuSans-Oblique-78" transform="translate(66.173333 38.71875) scale(0.7)"/>
    </g>
   </g>
   <g id="text_12">
    <!-- $\sin(x)$ -->
    <g style="fill: #ff0000" transform="translate(114.778956 436.246) scale(0.12 -0.12)">
     <defs>
      <path id="DejaVuSans-73" d="M 2834 3397 
L 2834 2853 
Q 2591 2978 2328 3040 
Q 2066 3103 1784 3103 
Q 1356 3103 1142 2972 
Q 928 2841 928 2578 
Q 928 2378 1081 2264 
Q 1234 2150 1697 2047 
L 1894 2003 
Q 2506 1872 2764 1633 
Q 3022 1394 3022 966 
Q 3022 478 2636 193 
Q 2250 -91 1575 -91 
Q 1294 -91 989 -36 
Q 684 19 347 128 
L 347 722 
Q 666 556 975 473 
Q 1284 391 1588 391 
Q 1994 391 2212 530 
Q 2431 669 2431 922 
Q 2431 1156 2273 1281 
Q 2116 1406 1581 1522 
L 1381 1569 
Q 847 1681 609 1914 
Q 372 2147 372 2553 
Q 372 3047 722 3315 
Q 1072 3584 1716 3584 
Q 2034 3584 2315 3537 
Q 2597 3491 2834 3397 
z
" transform="scale(0.015625)"/>
      <path id="DejaVuSans-69" d="M 603 3500 
L 1178 3500 
L 1178 0 
L 603 0 
L 603 3500 
z
M 603 4863 
L 1178 4863 
L 1178 4134 
L 603 4134 
L 603 4863 
z
" transform="scale(0.015625)"/>
      <path id="DejaVuSans-6e" d="M 3513 2113 
L 3513 0 
L 2938 0 
L 2938 2094 
Q 2938 2591 2744 2837 
Q 2550 3084 2163 3084 
Q 1697 3084 1428 2787 
Q 1159 2491 1159 1978 
L 1159 0 
L 581 0 
L 581 3500 
L 1159 3500 
L 1159 2956 
Q 1366 3272 1645 3428 
Q 1925 3584 2291 3584 
Q 2894 3584 3203 3211 
Q 3513 2838 3513 2113 
z
" transform="scale(0.015625)"/>
      <path id="DejaVuSans-28" d="M 1984 4856 
Q 1566 4138 1362 3434 
Q 1159 2731 1159 2009 
Q 1159 1288 1364 580 
Q 1569 -128 1984 -844 
L 1484 -844 
Q 1016 -109 783 600 
Q 550 1309 550 2009 
Q 550 2706 781 3412 
Q 1013 4119 1484 4856 
L 1984 4856 
z
" transform="scale(0.015625)"/>
      <path id="DejaVuSans-29" d="M 513 4856 
L 1013 4856 
Q 1481 4119 1714 3412 
Q 1947 2706 1947 2009 
Q 1947 1309 1714 600 
Q 1481 -109 1013 -844 
L 513 -844 
Q 928 -128 1133 580 
Q 1338 1288 1338 2009 
Q 1338 2731 1133 3434 
Q 928 4138 513 4856 
z
" transform="scale(0.015625)"/>
     </defs>
     <use xlink:href="#DejaVuSans-73" transform="translate(0 0.015625)"/>
     <use xlink:href="#DejaVuSans-69" transform="translate(52.099609 0.015625)"/>
     <use xlink:href="#DejaVuSans-6e" transform="translate(79.882812 0.015625)"/>
     <use xlink:href="#DejaVuSans-28" transform="translate(143.261719 0.015625)"/>
     <use xlink:href="#DejaVuSans-Oblique-78" transform="translate(182.275391 0.015625)"/>
     <use xlink:href="#DejaVuSans-29" transform="translate(241.455078 0.015625)"/>
    </g>
   </g>
   <g id="text_13">
    <!-- $\cos(x)$ -->
    <g style="fill: #008000" transform="translate(744.362088 402.982) scale(0.12 -0.12)">
     <defs>
      <path id="DejaVuSans-63" d="M 3122 3366 
L 3122 2828 
Q 2878 2963 2633 3030 
Q 2388 3097 2138 3097 
Q 1578 3097 1268 2742 
Q 959 2388 959 1747 
Q 959 1106 1268 751 
Q 1578 397 2138 397 
Q 2388 397 2633 464 
Q 2878 531 3122 666 
L 3122 134 
Q 2881 22 2623 -34 
Q 2366 -91 2075 -91 
Q 1284 -91 818 406 
Q 353 903 353 1747 
Q 353 2603 823 3093 
Q 1294 3584 2113 3584 
Q 2378 3584 2631 3529 
Q 2884 3475 3122 3366 
z
" transform="scale(0.015625)"/>
      <path id="DejaVuSans-6f" d="M 1959 3097 
Q 1497 3097 1228 2736 
Q 959 2375 959 1747 
Q 959 1119 1226 758 
Q 1494 397 1959 397 
Q 2419 397 2687 759 
Q 2956 1122 2956 1747 
Q 2956 2369 2687 2733 
Q 2419 3097 1959 3097 
z
M 1959 3584 
Q 2709 3584 3137 3096 
Q 3566 2609 3566 1747 
Q 3566 888 3137 398 
Q 2709 -91 1959 -91 
Q 1206 -91 779 398 
Q 353 888 353 1747 
Q 353 2609 779 3096 
Q 1206 3584 1959 3584 
z
" transform="scale(0.015625)"/>
     </defs>
     <use xlink:href="#DejaVuSans-63" transform="translate(0 0.125)"/>
     <use xlink:href="#DejaVuSans-6f" transform="translate(54.980469 0.125)"/>
     <use xlink:href="#DejaVuSans-73" transform="translate(116.162109 0.125)"/>
     <use xlink:href="#DejaVuSans-28" transform="translate(168.261719 0.125)"/>
     <use xlink:href="#DejaVuSans-Oblique-78" transform="translate(207.275391 0.125)"/>
     <use xlink:href="#DejaVuSans-29" transform="translate(266.455078 0.125)"/>
    </g>
   </g>
   <g id="text_14">
    <!-- $\ln(1+x)$ -->
    <g style="fill: #ffa500" transform="translate(584.94 213.144369) scale(0.12 -0.12)">
     <defs>
      <path id="DejaVuSans-6c" d="M 603 4863 
L 1178 4863 
L 1178 0 
L 603 0 
L 603 4863 
z
" transform="scale(0.015625)"/>
      <path id="DejaVuSans-31" d="M 794 531 
L 1825 531 
L 1825 4091 
L 703 3866 
L 703 4441 
L 1819 4666 
L 2450 4666 
L 2450 531 
L 3481 531 
L 3481 0 
L 794 0 
L 794 531 
z
" transform="scale(0.015625)"/>
      <path id="DejaVuSans-2b" d="M 2944 4013 
L 2944 2272 
L 4684 2272 
L 4684 1741 
L 2944 1741 
L 2944 0 
L 2419 0 
L 2419 1741 
L 678 1741 
L 678 2272 
L 2419 2272 
L 2419 4013 
L 2944 4013 
z
" transform="scale(0.015625)"/>
     </defs>
     <use xlink:href="#DejaVuSans-6c" transform="translate(0 0.015625)"/>
     <use xlink:href="#DejaVuSans-6e" transform="translate(27.783203 0.015625)"/>
     <use xlink:href="#DejaVuSans-28" transform="translate(91.162109 0.015625)"/>
     <use xlink:href="#DejaVuSans-31" transform="translate(130.175781 0.015625)"/>
     <use xlink:href="#DejaVuSans-2b" transform="translate(213.28125 0.015625)"/>
     <use xlink:href="#DejaVuSans-Oblique-78" transform="translate(316.552734 0.015625)"/>
     <use xlink:href="#DejaVuSans-29" transform="translate(375.732422 0.015625)"/>
    </g>
   </g>
   <g id="text_15">
    <!-- $y=x$ -->
    <g style="fill: #808080" transform="translate(100.944 491.686) scale(0.12 -0.12)">
     <defs>
      <path id="DejaVuSans-Oblique-79" d="M 1588 -325 
Q 1188 -997 936 -1164 
Q 684 -1331 294 -1331 
L -159 -1331 
L -63 -850 
L 269 -850 
Q 509 -850 678 -719 
Q 847 -588 1056 -206 
L 1234 128 
L 459 3500 
L 1069 3500 
L 1650 819 
L 3256 3500 
L 3859 3500 
L 1588 -325 
z
" transform="scale(0.015625)"/>
      <path id="DejaVuSans-3d" d="M 678 2906 
L 4684 2906 
L 4684 2381 
L 678 2381 
L 678 2906 
z
M 678 1631 
L 4684 1631 
L 4684 1100 
L 678 1100 
L 678 1631 
z
" transform="scale(0.015625)"/>
     </defs>
     <use xlink:href="#DejaVuSans-Oblique-79" transform="translate(0 0.3125)"/>
     <use xlink:href="#DejaVuSans-3d" transform="translate(78.662109 0.3125)"/>
     <use xlink:href="#DejaVuSans-Oblique-78" transform="translate(181.933594 0.3125)"/>
    </g>
   </g>
   <g id="text_16">
    <!-- $\tan(x)$ -->
    <g style="fill: #800080" transform="translate(203.352 463.596843) scale(0.12 -0.12)">
     <defs>
      <path id="DejaVuSans-74" d="M 1172 4494 
L 1172 3500 
L 2356 3500 
L 2356 3053 
L 1172 3053 
L 1172 1153 
Q 1172 725 1289 603 
Q 1406 481 1766 481 
L 2356 481 
L 2356 0 
L 1766 0 
Q 1100 0 847 248 
Q 594 497 594 1153 
L 594 3053 
L 172 3053 
L 172 3500 
L 594 3500 
L 594 4494 
L 1172 4494 
z
" transform="scale(0.015625)"/>
      <path id="DejaVuSans-61" d="M 2194 1759 
Q 1497 1759 1228 1600 
Q 959 1441 959 1056 
Q 959 750 1161 570 
Q 1363 391 1709 391 
Q 2188 391 2477 730 
Q 2766 1069 2766 1631 
L 2766 1759 
L 2194 1759 
z
M 3341 1997 
L 3341 0 
L 2766 0 
L 2766 531 
Q 2569 213 2275 61 
Q 1981 -91 1556 -91 
Q 1019 -91 701 211 
Q 384 513 384 1019 
Q 384 1609 779 1909 
Q 1175 2209 1959 2209 
L 2766 2209 
L 2766 2266 
Q 2766 2663 2505 2880 
Q 2244 3097 1772 3097 
Q 1472 3097 1187 3025 
Q 903 2953 641 2809 
L 641 3341 
Q 956 3463 1253 3523 
Q 1550 3584 1831 3584 
Q 2591 3584 2966 3190 
Q 3341 2797 3341 1997 
z
" transform="scale(0.015625)"/>
     </defs>
     <use xlink:href="#DejaVuSans-74" transform="translate(0 0.125)"/>
     <use xlink:href="#DejaVuSans-61" transform="translate(39.208984 0.125)"/>
     <use xlink:href="#DejaVuSans-6e" transform="translate(100.488281 0.125)"/>
     <use xlink:href="#DejaVuSans-28" transform="translate(163.867188 0.125)"/>
     <use xlink:href="#DejaVuSans-Oblique-78" transform="translate(202.880859 0.125)"/>
     <use xlink:href="#DejaVuSans-29" transform="translate(262.060547 0.125)"/>
    </g>
   </g>
   <g id="text_17">
    <!-- $\arcsin(x)$ -->
    <g style="fill: #a52a2a" transform="translate(168.912 449.526044) scale(0.12 -0.12)">
     <defs>
      <path id="DejaVuSans-72" d="M 2631 2963 
Q 2534 3019 2420 3045 
Q 2306 3072 2169 3072 
Q 1681 3072 1420 2755 
Q 1159 2438 1159 1844 
L 1159 0 
L 581 0 
L 581 3500 
L 1159 3500 
L 1159 2956 
Q 1341 3275 1631 3429 
Q 1922 3584 2338 3584 
Q 2397 3584 2469 3576 
Q 2541 3569 2628 3553 
L 2631 2963 
z
" transform="scale(0.015625)"/>
     </defs>
     <use xlink:href="#DejaVuSans-61" transform="translate(0 0.015625)"/>
     <use xlink:href="#DejaVuSans-72" transform="translate(61.279297 0.015625)"/>
     <use xlink:href="#DejaVuSans-63" transform="translate(102.392578 0.015625)"/>
     <use xlink:href="#DejaVuSans-73" transform="translate(157.373047 0.015625)"/>
     <use xlink:href="#DejaVuSans-69" transform="translate(209.472656 0.015625)"/>
     <use xlink:href="#DejaVuSans-6e" transform="translate(237.255859 0.015625)"/>
     <use xlink:href="#DejaVuSans-28" transform="translate(300.634766 0.015625)"/>
     <use xlink:href="#DejaVuSans-Oblique-78" transform="translate(339.648438 0.015625)"/>
     <use xlink:href="#DejaVuSans-29" transform="translate(398.828125 0.015625)"/>
    </g>
   </g>
   <g id="text_18">
    <!-- $\arctan(x)$ -->
    <g style="fill: #ffc0cb" transform="translate(542.88 172.041832) scale(0.12 -0.12)">
     <use xlink:href="#DejaVuSans-61" transform="translate(0 0.125)"/>
     <use xlink:href="#DejaVuSans-72" transform="translate(61.279297 0.125)"/>
     <use xlink:href="#DejaVuSans-63" transform="translate(102.392578 0.125)"/>
     <use xlink:href="#DejaVuSans-74" transform="translate(157.373047 0.125)"/>
     <use xlink:href="#DejaVuSans-61" transform="translate(196.582031 0.125)"/>
     <use xlink:href="#DejaVuSans-6e" transform="translate(257.861328 0.125)"/>
     <use xlink:href="#DejaVuSans-28" transform="translate(321.240234 0.125)"/>
     <use xlink:href="#DejaVuSans-Oblique-78" transform="translate(360.253906 0.125)"/>
     <use xlink:href="#DejaVuSans-29" transform="translate(419.433594 0.125)"/>
    </g>
   </g>
   <g id="text_19">
    <!-- $\frac{1}{1+x}$ -->
    <g style="fill: #008080" transform="translate(33.984 377.394308) scale(0.12 -0.12)">
     <use xlink:href="#DejaVuSans-31" transform="translate(64 43.965625) scale(0.7)"/>
     <use xlink:href="#DejaVuSans-31" transform="translate(0 -38.31875) scale(0.7)"/>
     <use xlink:href="#DejaVuSans-2b" transform="translate(58.173828 -38.31875) scale(0.7)"/>
     <use xlink:href="#DejaVuSans-Oblique-78" transform="translate(130.463867 -38.31875) scale(0.7)"/>
     <path d="M 0 18.965625 
L 0 25.215625 
L 171.889648 25.215625 
L 171.889648 18.965625 
L 0 18.965625 
z
"/>
    </g>
   </g>
   <g id="text_20">
    <!-- $\frac{1}{1-x}$ -->
    <g style="fill: #ffd700" transform="translate(569.664 461.59) scale(0.12 -0.12)">
     <defs>
      <path id="DejaVuSans-2212" d="M 678 2272 
L 4684 2272 
L 4684 1741 
L 678 1741 
L 678 2272 
z
" transform="scale(0.015625)"/>
     </defs>
     <use xlink:href="#DejaVuSans-31" transform="translate(64 43.965625) scale(0.7)"/>
     <use xlink:href="#DejaVuSans-31" transform="translate(0 -38.31875) scale(0.7)"/>
     <use xlink:href="#DejaVuSans-2212" transform="translate(58.173828 -38.31875) scale(0.7)"/>
     <use xlink:href="#DejaVuSans-Oblique-78" transform="translate(130.463867 -38.31875) scale(0.7)"/>
     <path d="M 0 18.965625 
L 0 25.215625 
L 171.889648 25.215625 
L 171.889648 18.965625 
L 0 18.965625 
z
"/>
    </g>
   </g>
   <g id="text_21">
    <!-- 常见函数曲线 (优化布局) -->
    <g transform="translate(254.2875 19.99) scale(0.16 -0.16)">
     <defs>
      <path id="MicrosoftYaHei-5e38" d="M 1213 -372 
L 725 -372 
L 725 1409 
L 2963 1409 
L 2963 1997 
L 1738 1997 
L 1738 1772 
L 1263 1772 
L 1263 3366 
L 5175 3366 
L 5175 1772 
L 4700 1772 
L 4700 1997 
L 3463 1997 
L 3463 1409 
L 5756 1409 
L 5756 341 
Q 5756 -378 5000 -378 
Q 4681 -378 4269 -372 
Q 4231 -153 4175 109 
Q 4556 72 4881 72 
Q 5269 72 5269 409 
L 5269 997 
L 3463 997 
L 3463 -853 
L 2963 -853 
L 2963 997 
L 1213 997 
L 1213 -372 
z
M 356 4216 
L 1828 4216 
Q 1409 4572 956 4903 
L 1244 5228 
Q 1713 4916 2188 4572 
L 1853 4216 
L 2956 4216 
L 2956 5309 
L 3456 5309 
L 3456 4216 
L 4488 4216 
L 4238 4528 
Q 4750 4866 5213 5247 
L 5575 4878 
Q 5128 4547 4631 4216 
L 6056 4216 
L 6056 3109 
L 5569 3109 
L 5569 3791 
L 844 3791 
L 844 3109 
L 356 3109 
L 356 4216 
z
M 4700 2966 
L 1738 2966 
L 1738 2397 
L 4700 2397 
L 4700 2966 
z
" transform="scale(0.015625)"/>
      <path id="MicrosoftYaHei-89c1" d="M 2919 4128 
L 3438 4128 
L 3438 3491 
Q 3438 2644 3313 2009 
L 3781 2009 
L 3781 178 
Q 3781 -216 4213 -216 
L 5206 -216 
Q 5625 -216 5688 191 
Q 5750 584 5788 1159 
Q 6038 1059 6300 978 
Q 6244 403 6163 -16 
Q 6050 -672 5275 -672 
L 4088 -672 
Q 3269 -672 3269 91 
L 3269 1797 
Q 3122 1181 2844 784 
Q 2250 -128 494 -866 
Q 356 -678 131 -416 
Q 1781 234 2363 1066 
Q 2919 1797 2919 3497 
L 2919 4128 
z
M 913 5072 
L 5513 5072 
L 5513 1178 
L 5000 1178 
L 5000 4609 
L 1425 4609 
L 1425 1141 
L 913 1141 
L 913 5072 
z
" transform="scale(0.015625)"/>
      <path id="MicrosoftYaHei-51fd" d="M 5431 -816 
L 5431 -516 
L 469 -516 
L 469 3722 
L 969 3722 
L 969 -53 
L 5431 -53 
L 5431 3722 
L 5931 3722 
L 5931 -816 
L 5431 -816 
z
M 3069 3753 
L 4550 4541 
L 1013 4541 
L 1013 4997 
L 5294 4997 
L 5294 4478 
L 3544 3509 
L 3544 1047 
Q 3544 266 2775 266 
Q 2463 266 1994 278 
Q 1975 491 1919 784 
Q 2319 734 2675 734 
Q 3069 734 3069 1109 
L 3069 3753 
z
M 2681 2372 
L 2938 1978 
Q 2169 1541 1300 1016 
L 1019 1447 
Q 1794 1822 2681 2372 
z
M 3638 1997 
L 3938 2359 
Q 4631 1928 5375 1409 
L 5038 991 
Q 4350 1528 3638 1997 
z
M 1219 3484 
L 1525 3822 
Q 2150 3391 2731 2934 
L 2394 2547 
Q 1788 3066 1219 3484 
z
M 4894 3753 
L 5256 3416 
Q 4763 2997 4150 2522 
L 3825 2878 
Q 4375 3284 4894 3753 
z
" transform="scale(0.015625)"/>
      <path id="MicrosoftYaHei-6570" d="M 4175 5303 
L 4675 5228 
Q 4544 4622 4369 4097 
L 6281 4097 
L 6281 3672 
L 5888 3672 
Q 5731 1834 5088 753 
Q 5594 66 6375 -372 
Q 6175 -647 6038 -866 
Q 5275 -372 4769 309 
Q 4194 -403 3400 -928 
Q 3263 -747 3044 -534 
Q 3919 41 4463 772 
Q 3956 1647 3794 2791 
Q 3663 2559 3519 2359 
Q 3394 2541 3206 2759 
Q 3931 3803 4175 5303 
z
M 150 1697 
L 1100 1697 
Q 1238 1934 1369 2184 
L 1819 2041 
Q 1719 1866 1619 1697 
L 3150 1697 
L 3150 1291 
Q 2913 678 2431 216 
Q 2775 53 3131 -109 
L 2856 -541 
Q 2469 -322 2050 -103 
Q 1344 -609 269 -903 
Q 169 -703 56 -466 
Q 969 -259 1600 128 
Q 1063 403 475 691 
Q 675 978 863 1284 
L 150 1284 
L 150 1697 
z
M 219 3847 
L 1656 3847 
L 1656 5247 
L 2119 5247 
L 2119 3847 
L 3319 3847 
L 3319 3434 
L 2119 3434 
L 2119 3053 
L 2306 3266 
Q 2888 2841 3281 2516 
L 2981 2166 
Q 2638 2491 2119 2897 
L 2119 2184 
L 1656 2184 
L 1656 3059 
Q 1088 2466 331 2016 
Q 213 2197 63 2397 
Q 850 2822 1506 3434 
L 219 3434 
L 219 3847 
z
M 5388 3672 
L 4219 3672 
Q 4188 3591 4150 3516 
Q 4263 2191 4775 1247 
Q 5275 2159 5388 3672 
z
M 1088 834 
Q 1531 634 2000 416 
Q 2431 784 2675 1284 
L 1375 1284 
Q 1231 1053 1088 834 
z
M 3038 5091 
L 3425 4834 
Q 3081 4384 2738 4003 
Q 2594 4128 2400 4266 
Q 2725 4647 3038 5091 
z
M 381 4816 
L 738 5059 
Q 1019 4716 1319 4322 
L 931 4047 
Q 656 4453 381 4816 
z
" transform="scale(0.015625)"/>
      <path id="MicrosoftYaHei-66f2" d="M 2163 5322 
L 2625 5322 
L 2625 4291 
L 3775 4291 
L 3775 5328 
L 4238 5328 
L 4238 4291 
L 5850 4291 
L 5850 -822 
L 5388 -822 
L 5388 -409 
L 1013 -409 
L 1013 -822 
L 550 -822 
L 550 4291 
L 2163 4291 
L 2163 5322 
z
M 1013 41 
L 2163 41 
L 2163 1753 
L 1013 1753 
L 1013 41 
z
M 4238 41 
L 5388 41 
L 5388 1753 
L 4238 1753 
L 4238 41 
z
M 2625 41 
L 3775 41 
L 3775 1753 
L 2625 1753 
L 2625 41 
z
M 1013 2203 
L 2163 2203 
L 2163 3841 
L 1013 3841 
L 1013 2203 
z
M 5388 3841 
L 4238 3841 
L 4238 2203 
L 5388 2203 
L 5388 3841 
z
M 2625 2203 
L 3775 2203 
L 3775 3841 
L 2625 3841 
L 2625 2203 
z
" transform="scale(0.015625)"/>
      <path id="MicrosoftYaHei-7ebf" d="M 1969 -347 
Q 3144 75 4003 631 
Q 3781 1197 3653 1972 
L 2319 1784 
L 2244 2234 
L 3591 2422 
Q 3538 2859 3513 3356 
L 2381 3228 
L 2306 3678 
L 3488 3809 
Q 3453 4459 3425 5303 
L 3938 5303 
Q 3953 4497 3978 3866 
L 6069 4103 
L 6125 3659 
L 3997 3413 
Q 4019 2919 4069 2488 
L 6225 2791 
L 6281 2347 
L 4128 2041 
Q 4234 1394 4416 916 
Q 5078 1416 5519 2009 
L 5925 1703 
Q 5363 1025 4619 475 
Q 4859 44 5194 -184 
Q 5606 -428 5725 66 
Q 5806 466 5856 953 
Q 6144 828 6338 772 
Q 6231 97 6125 -247 
Q 5944 -778 5506 -778 
Q 5050 -778 4663 -403 
Q 4409 -163 4209 194 
Q 3350 -363 2281 -772 
Q 2169 -597 1969 -347 
z
M 900 1541 
Q 1456 1622 2213 1753 
Q 2175 1522 2156 1272 
Q 1113 1109 325 978 
L 225 1447 
Q 659 1913 1178 2775 
Q 672 2747 225 2703 
L 106 3128 
Q 688 3922 1300 5353 
L 1775 5166 
Q 1131 3897 669 3166 
Q 1041 3178 1422 3194 
Q 1638 3578 1869 4028 
L 2331 3797 
Q 1569 2478 900 1541 
z
M 106 97 
Q 1206 334 2331 616 
Q 2313 366 2313 141 
Q 1269 -103 244 -378 
L 106 97 
z
M 4463 4972 
L 4731 5284 
Q 5175 5003 5681 4609 
L 5381 4247 
Q 4863 4691 4463 4972 
z
" transform="scale(0.015625)"/>
      <path id="MicrosoftYaHei-20" transform="scale(0.015625)"/>
      <path id="MicrosoftYaHei-28" d="M 1531 -1100 
Q 478 100 478 1847 
Q 478 3594 1531 4841 
L 2072 4841 
Q 1016 3544 1016 1853 
Q 1016 166 2066 -1100 
L 1531 -1100 
z
" transform="scale(0.015625)"/>
      <path id="MicrosoftYaHei-4f18" d="M 1825 3609 
L 3184 3609 
Q 3216 4322 3213 5272 
L 3713 5272 
Q 3719 4338 3688 3609 
L 6188 3609 
L 6188 3153 
L 4475 3153 
L 4475 228 
Q 4475 -122 4838 -122 
L 5244 -122 
Q 5656 -122 5700 303 
Q 5750 659 5781 1266 
Q 6031 1166 6294 1066 
Q 6244 528 6175 109 
Q 6100 -291 5900 -447 
Q 5713 -603 5275 -597 
L 4763 -597 
Q 4325 -597 4150 -422 
Q 3969 -259 3969 184 
L 3969 3153 
L 3663 3153 
Q 3600 791 1950 -803 
Q 1775 -597 1575 -397 
Q 3100 1028 3159 3153 
L 1825 3153 
L 1825 3609 
z
M 88 2334 
Q 1056 3641 1556 5291 
L 2063 5122 
Q 1753 4253 1388 3522 
L 1388 -809 
L 913 -809 
L 913 2666 
Q 616 2184 288 1778 
Q 194 2047 88 2334 
z
M 4600 5184 
Q 5269 4759 5713 4391 
Q 5538 4197 5388 3991 
Q 4875 4447 4325 4841 
L 4600 5184 
z
" transform="scale(0.015625)"/>
      <path id="MicrosoftYaHei-5316" d="M 1844 1453 
Q 2663 1834 3375 2331 
L 3375 5197 
L 3913 5197 
L 3913 2734 
Q 4869 3506 5613 4516 
L 6069 4184 
Q 5159 2975 3913 2069 
L 3913 303 
Q 3913 -122 4363 -122 
L 5156 -122 
Q 5581 -122 5650 284 
Q 5738 709 5763 1266 
Q 6025 1166 6313 1084 
Q 6263 559 6181 122 
Q 6063 -597 5281 -597 
L 4225 -597 
Q 3375 -597 3375 241 
L 3375 1703 
Q 2791 1328 2144 1016 
Q 2013 1222 1844 1453 
z
M 88 2222 
Q 1175 3666 1688 5291 
L 2231 5134 
Q 1934 4359 1588 3675 
L 1588 -797 
L 1063 -797 
L 1063 2734 
Q 716 2172 325 1678 
Q 219 1947 88 2222 
z
" transform="scale(0.015625)"/>
      <path id="MicrosoftYaHei-5e03" d="M 3250 3666 
L 3750 3666 
L 3750 2703 
L 5681 2703 
L 5681 541 
Q 5681 -197 5050 -197 
Q 4888 -197 4119 -191 
Q 4081 16 4019 316 
Q 4644 278 4769 278 
Q 5188 266 5188 666 
L 5188 2253 
L 3750 2253 
L 3750 -828 
L 3250 -828 
L 3250 2253 
L 1844 2253 
L 1844 -353 
L 1350 -353 
L 1350 2113 
Q 928 1553 450 1028 
Q 294 1253 94 1447 
Q 1241 2647 1969 3984 
L 200 3984 
L 200 4434 
L 2200 4434 
Q 2419 4884 2594 5353 
L 3088 5153 
Q 2934 4788 2766 4434 
L 6250 4434 
L 6250 3984 
L 2538 3984 
Q 2188 3325 1772 2703 
L 3250 2703 
L 3250 3666 
z
" transform="scale(0.015625)"/>
      <path id="MicrosoftYaHei-5c40" d="M 1313 2453 
Q 1313 434 450 -709 
Q 306 -497 94 -266 
Q 813 747 813 2422 
L 813 5009 
L 5669 5009 
L 5669 3234 
L 5175 3234 
L 5175 3422 
L 1313 3422 
L 1313 2878 
L 5969 2878 
Q 5919 1141 5888 616 
Q 5838 -147 5606 -422 
Q 5388 -728 4619 -728 
Q 4244 -728 3656 -691 
Q 3625 -378 3575 -153 
Q 4238 -234 4725 -234 
Q 5100 -234 5225 -53 
Q 5356 122 5394 647 
Q 5419 1109 5450 2453 
L 1313 2453 
z
M 1900 1909 
L 4631 1909 
L 4631 309 
L 2369 309 
L 2369 53 
L 1900 53 
L 1900 1909 
z
M 5175 4584 
L 1313 4584 
L 1313 3847 
L 5175 3847 
L 5175 4584 
z
M 4163 716 
L 4163 1503 
L 2369 1503 
L 2369 716 
L 4163 716 
z
" transform="scale(0.015625)"/>
      <path id="MicrosoftYaHei-29" d="M 78 -1100 
Q 1131 163 1131 1853 
Q 1131 3547 72 4841 
L 616 4841 
Q 1672 3603 1672 1847 
Q 1672 91 616 -1100 
L 78 -1100 
z
" transform="scale(0.015625)"/>
     </defs>
     <use xlink:href="#MicrosoftYaHei-5e38"/>
     <use xlink:href="#MicrosoftYaHei-89c1" x="100"/>
     <use xlink:href="#MicrosoftYaHei-51fd" x="200"/>
     <use xlink:href="#MicrosoftYaHei-6570" x="300"/>
     <use xlink:href="#MicrosoftYaHei-66f2" x="400"/>
     <use xlink:href="#MicrosoftYaHei-7ebf" x="500"/>
     <use xlink:href="#MicrosoftYaHei-20" x="600"/>
     <use xlink:href="#MicrosoftYaHei-28" x="629.589844"/>
     <use xlink:href="#MicrosoftYaHei-4f18" x="662.988281"/>
     <use xlink:href="#MicrosoftYaHei-5316" x="762.988281"/>
     <use xlink:href="#MicrosoftYaHei-5e03" x="862.988281"/>
     <use xlink:href="#MicrosoftYaHei-5c40" x="962.988281"/>
     <use xlink:href="#MicrosoftYaHei-29" x="1062.988281"/>
    </g>
   </g>
  </g>
 </g>
 <defs>
  <clipPath id="p74677bb5c0">
   <rect x="7.2" y="25.99" width="669.6" height="554.4"/>
  </clipPath>
 </defs>
</svg>
